<svg preserveAspectRatio="none" width="100%" height="100%" overflow="visible" style="display: block;" viewBox="0 0 15.0014 14.2504" fill="none" xmlns="http://www.w3.org/2000/svg">
<path id="Vector" d="M9.82559 9.26977L9.29677 8.73793V8.73793L9.82559 9.26977ZM10.1672 8.93013L10.696 9.46196V9.46196L10.1672 8.93013ZM11.9797 8.69256L11.6215 9.35149H11.6215L11.9797 8.69256ZM13.4125 9.47149L13.0543 10.1304L13.4125 9.47149ZM13.8163 11.9127L14.3451 12.4446V12.4446L13.8163 11.9127ZM12.7509 12.9721L12.2221 12.4402V12.4402L12.7509 12.9721ZM11.7573 13.4744L11.8269 14.2211H11.8269L11.7573 13.4744ZM4.36157 10.2954L4.89039 9.76359L4.36157 10.2954ZM0.752217 3.55971L0.0034256 3.60226V3.60226L0.752217 3.55971ZM5.60819 4.64854L6.13701 5.18038V5.18038L5.60819 4.64854ZM5.72573 2.65811L6.32613 2.20864V2.20864L5.72573 2.65811ZM4.77999 1.39481L4.1796 1.84428L4.1796 1.84428L4.77999 1.39481ZM2.44614 1.18162L2.97496 1.71346V1.71346L2.44614 1.18162ZM1.26894 2.35214L0.740121 1.8203L0.74012 1.8203L1.26894 2.35214ZM6.79739 7.87343L7.32621 7.34159L6.79739 7.87343ZM9.82559 9.26977L10.3544 9.80161L10.696 9.46196L10.1672 8.93013L9.63836 8.39829L9.29677 8.73793L9.82559 9.26977ZM11.9797 8.69256L11.6215 9.35149L13.0543 10.1304L13.4125 9.47149L13.7707 8.81256L12.3379 8.03363L11.9797 8.69256ZM13.8163 11.9127L13.2875 11.3809L12.2221 12.4402L12.7509 12.9721L13.2797 13.5039L14.3451 12.4446L13.8163 11.9127ZM11.7573 13.4744L11.6876 12.7276C10.6451 12.8248 7.89015 12.7463 4.89039 9.76359L4.36157 10.2954L3.83275 10.8273C7.20316 14.1785 10.4252 14.3518 11.8269 14.2211L11.7573 13.4744ZM4.36157 10.2954L4.89039 9.76359C2.02018 6.90967 1.5583 4.5252 1.50101 3.51715L0.752217 3.55971L0.0034256 3.60226C0.0813577 4.97354 0.695999 7.70832 3.83275 10.8273L4.36157 10.2954ZM5.39308 4.86243L5.9219 5.39427L6.13701 5.18038L5.60819 4.64854L5.07937 4.1167L4.86426 4.33059L5.39308 4.86243ZM5.72573 2.65811L6.32613 2.20864L5.38039 0.945341L4.77999 1.39481L4.1796 1.84428L5.12534 3.10759L5.72573 2.65811ZM2.44614 1.18162L1.91732 0.649786L0.740121 1.8203L1.26894 2.35214L1.79776 2.88398L2.97496 1.71346L2.44614 1.18162ZM5.39308 4.86243C4.86426 4.33059 4.86355 4.3313 4.86283 4.33202C4.86259 4.33226 4.86187 4.33298 4.86139 4.33347C4.86041 4.33444 4.85943 4.33544 4.85843 4.33645C4.85643 4.33848 4.85438 4.34059 4.85229 4.34277C4.84809 4.34712 4.84369 4.35178 4.83911 4.35675C4.82996 4.36669 4.82008 4.37787 4.80965 4.39033C4.78878 4.41523 4.76563 4.44529 4.74161 4.48074C4.69344 4.55184 4.64214 4.64408 4.59901 4.75857C4.51071 4.99292 4.46671 5.29363 4.52301 5.65653C4.63256 6.36272 5.11147 7.25473 6.26858 8.40527L6.79739 7.87343L7.32621 7.34159C6.26707 6.28846 6.04381 5.67498 6.00527 5.42658C5.98753 5.31219 6.008 5.27333 6.00268 5.28744C6.00103 5.29181 5.99585 5.30377 5.98343 5.32211C5.97728 5.33118 5.96941 5.34174 5.95936 5.35374C5.95433 5.35975 5.94874 5.36612 5.94252 5.37287C5.93941 5.37625 5.93615 5.37972 5.93271 5.38328C5.931 5.38506 5.92924 5.38687 5.92744 5.3887C5.92653 5.38962 5.92562 5.39054 5.9247 5.39147C5.92424 5.39193 5.92354 5.39263 5.92331 5.39286C5.9226 5.39356 5.9219 5.39427 5.39308 4.86243ZM6.79739 7.87343L6.26858 8.40527C7.4262 9.55632 8.3221 10.0309 9.02888 10.1393C9.3917 10.195 9.69195 10.1515 9.9259 10.0643C10.0403 10.0217 10.1325 9.97099 10.2038 9.92328C10.2393 9.89949 10.2694 9.87655 10.2944 9.85584C10.3069 9.84549 10.3181 9.83568 10.3281 9.8266C10.3331 9.82205 10.3378 9.81768 10.3422 9.81351C10.3444 9.81143 10.3465 9.80939 10.3485 9.80741C10.3495 9.80641 10.3505 9.80543 10.3515 9.80447C10.352 9.80399 10.3527 9.80327 10.353 9.80303C10.3537 9.80232 10.3544 9.80161 9.82559 9.26977C9.29677 8.73793 9.29748 8.73723 9.29818 8.73653C9.29842 8.7363 9.29912 8.73561 9.29959 8.73515C9.30052 8.73423 9.30145 8.73332 9.30237 8.73243C9.30421 8.73064 9.30602 8.72889 9.30781 8.72718C9.3114 8.72377 9.31488 8.72053 9.31827 8.71744C9.32504 8.71128 9.33144 8.70573 9.33745 8.70076C9.34946 8.6908 9.35999 8.68305 9.36897 8.67704C9.38714 8.66487 9.39865 8.66002 9.40229 8.65866C9.41474 8.65402 9.37349 8.67462 9.25629 8.65665C9.00304 8.6178 8.38485 8.39422 7.32621 7.34159L6.79739 7.87343ZM4.77999 1.39481L5.38039 0.945342C4.55182 -0.161452 2.91603 -0.343249 1.91732 0.649786L2.44614 1.18162L2.97496 1.71346C3.28802 1.40218 3.86371 1.42233 4.1796 1.84428L4.77999 1.39481ZM0.752217 3.55971L1.50101 3.51715C1.49015 3.32604 1.57624 3.10424 1.79776 2.88398L1.26894 2.35214L0.74012 1.8203C0.311206 2.24678 -0.0385671 2.86335 0.0034256 3.60226L0.752217 3.55971ZM12.7509 12.9721L12.2221 12.4402C12.0375 12.6237 11.855 12.712 11.6876 12.7276L11.7573 13.4744L11.8269 14.2211C12.4326 14.1647 12.9224 13.8592 13.2797 13.5039L12.7509 12.9721ZM5.60819 4.64854L6.13701 5.18038C6.94488 4.3771 7.00141 3.11067 6.32613 2.20864L5.72573 2.65811L5.12534 3.10759C5.37472 3.4407 5.33134 3.86617 5.07937 4.1167L5.60819 4.64854ZM13.4125 9.47149L13.0543 10.1304C13.5654 10.4083 13.6252 11.0451 13.2875 11.3809L13.8163 11.9127L14.3451 12.4446C15.4457 11.3502 15.1 9.53515 13.7707 8.81256L13.4125 9.47149ZM10.1672 8.93013L10.696 9.46196C10.9226 9.23664 11.2953 9.17419 11.6215 9.35149L11.9797 8.69256L12.3379 8.03363C11.4557 7.55404 10.3562 7.68456 9.63836 8.39829L10.1672 8.93013Z" fill="var(--stroke-0, white)" fill-opacity="0.8"/>
</svg>
