<svg preserveAspectRatio="none" width="100%" height="100%" overflow="visible" style="display: block;" viewBox="0 0 28.6667 28.6667" fill="none" xmlns="http://www.w3.org/2000/svg">
<path id="Vector" fill-rule="evenodd" clip-rule="evenodd" d="M19.5974 1.49478e-06L22.4027 2.84582e-06C23.6006 -3.63343e-05 24.5996 -6.90023e-05 25.3926 0.106552C26.2297 0.219092 26.9854 0.466652 27.5927 1.07395C28.2 1.68124 28.4476 2.43697 28.5601 3.27403C28.6667 4.06707 28.6667 5.06604 28.6667 6.26401V22.4027C28.6667 23.6006 28.6667 24.5996 28.5601 25.3926C28.4476 26.2297 28.2 26.9854 27.5927 27.5927C26.9854 28.2 26.2297 28.4476 25.3926 28.5601C24.5996 28.6667 23.6006 28.6667 22.4027 28.6667H19.5973C18.3994 28.6667 17.4004 28.6667 16.6074 28.5601C15.7703 28.4476 15.0146 28.2 14.4073 27.5927C13.8 26.9854 13.5524 26.2297 13.4399 25.3926C13.3333 24.5996 13.3333 23.6006 13.3333 22.4027V6.26401C13.3333 5.06604 13.3333 4.06708 13.4399 3.27403C13.5524 2.43697 13.8 1.68124 14.4073 1.07395C15.0146 0.466653 15.7703 0.219092 16.6074 0.106552C17.4004 -7.03533e-05 18.3994 -3.76853e-05 19.5974 1.49478e-06ZM15.3333 11.3333H18.3333C18.8856 11.3333 19.3333 10.8856 19.3333 10.3333C19.3333 9.78105 18.8856 9.33334 18.3333 9.33334H15.3333V7.33334L17 7.33334C17.5523 7.33334 18 6.88562 18 6.33334C18 5.78105 17.5523 5.33334 17 5.33334L15.3358 5.33334C15.3414 4.57409 15.3601 4.00119 15.4221 3.54053C15.5048 2.92525 15.6477 2.66191 15.8215 2.48816C15.9952 2.3144 16.2586 2.17144 16.8739 2.08872C17.5179 2.00213 18.3813 2 19.6667 2L22.3333 2C23.6187 2 24.4821 2.00213 25.1262 2.08872C25.7414 2.17144 26.0048 2.3144 26.1785 2.48816C26.3523 2.66191 26.4952 2.92524 26.578 3.54053C26.6645 4.18458 26.6667 5.04799 26.6667 6.33334V22.3333C26.6667 23.6187 26.6645 24.4821 26.578 25.1261C26.4952 25.7414 26.3523 26.0048 26.1785 26.1785C26.0048 26.3523 25.7414 26.4952 25.1262 26.578C24.4821 26.6645 23.6187 26.6667 22.3333 26.6667H19.6667C18.3813 26.6667 17.5179 26.6645 16.8739 26.578C16.2586 26.4952 15.9952 26.3523 15.8215 26.1785C15.6477 26.0048 15.5048 25.7414 15.4221 25.1261C15.3601 24.6655 15.3414 24.0926 15.3358 23.3333H17C17.5523 23.3333 18 22.8856 18 22.3333C18 21.7811 17.5523 21.3333 17 21.3333H15.3333V19.3333L18.3333 19.3333C18.8856 19.3333 19.3333 18.8856 19.3333 18.3333C19.3333 17.7811 18.8856 17.3333 18.3333 17.3333L15.3333 17.3333V15.3333H17C17.5523 15.3333 18 14.8856 18 14.3333C18 13.7811 17.5523 13.3333 17 13.3333H15.3333V11.3333ZM6.6372e-06 4.8C6.71667e-06 2.10132 2.28754 3.08424e-06 5.00001 3.00477e-06C7.71248 2.92529e-06 10 2.10132 10 4.8L10 19.113C10.0001 19.8372 10.0001 20.2923 9.94129 20.7442C9.87203 21.2765 9.74201 21.7995 9.5538 22.3039C9.39412 22.7318 9.18063 23.1374 8.83931 23.7857L6.84973 27.5659C6.48529 28.2584 5.76058 28.6667 5.00001 28.6667C4.23943 28.6667 3.51472 28.2584 3.15028 27.5659L1.1607 23.7858C0.819382 23.1374 0.60589 22.7318 0.446214 22.3039C0.258007 21.7995 0.127978 21.2765 0.058721 20.7442C-8.61088e-05 20.2923 -5.16164e-05 19.8372 3.29934e-06 19.113L6.6372e-06 4.8ZM5.00001 2C3.2942 2 2.00001 3.30132 2.00001 4.8L2.00001 5.53996C2.12851 5.61627 2.28953 5.70359 2.48087 5.79172C3.06435 6.06048 3.92165 6.33334 5.00001 6.33334C6.07837 6.33334 6.93566 6.06048 7.51915 5.79172C7.71048 5.70359 7.8715 5.61628 8.00001 5.53996L8.00001 4.8C8.00001 3.30132 6.70581 2 5.00001 2ZM8.00001 7.76138C7.23629 8.06742 6.22103 8.33334 5.00001 8.33334C3.77898 8.33334 2.76372 8.06742 2.00001 7.76138L2.00001 19.0451C2.00001 19.8586 2.00192 20.1781 2.042 20.4862C2.09155 20.8669 2.18467 21.242 2.32002 21.6047C2.42975 21.8988 2.57936 22.187 2.96213 22.9143L4.25433 25.3695H5.74568L7.03788 22.9143C7.42065 22.187 7.57026 21.8988 7.68 21.6047C7.81534 21.242 7.90847 20.8669 7.95801 20.4862C7.99809 20.1781 8 19.8586 8 19.0451L8.00001 7.76138ZM1.63954 5.29792L1.64133 5.2994C1.63909 5.29761 1.63905 5.29751 1.63954 5.29792ZM8.35785 5.30003L8.3604 5.29798C8.36004 5.29827 8.35919 5.29896 8.35785 5.30003Z" fill="var(--fill-0, black)" fill-opacity="0.8"/>
</svg>
