<svg preserveAspectRatio="none" width="100%" height="100%" overflow="visible" style="display: block;" viewBox="0 0 5.90857 5.90857" fill="none" xmlns="http://www.w3.org/2000/svg">
<path id="new-tab-icon" d="M2.95428 0C2.68235 0 2.4619 0.220446 2.4619 0.492381V2.4619H0.492381C0.220446 2.4619 0 2.68235 0 2.95428C0 3.22622 0.220446 3.44667 0.492381 3.44667H2.4619V5.41619C2.4619 5.68812 2.68235 5.90857 2.95428 5.90857C3.22622 5.90857 3.44667 5.68812 3.44667 5.41619V3.44667H5.41619C5.68812 3.44667 5.90857 3.22622 5.90857 2.95428C5.90857 2.68235 5.68812 2.4619 5.41619 2.4619H3.44667V0.492381C3.44667 0.220446 3.22622 0 2.95428 0Z" fill="var(--fill-0, #606367)"/>
</svg>
