<svg preserveAspectRatio="none" width="100%" height="100%" overflow="visible" style="display: block;" viewBox="0 0 28.6667 16.6667" fill="none" xmlns="http://www.w3.org/2000/svg">
<path id="Vector 1116 (Stroke)" fill-rule="evenodd" clip-rule="evenodd" d="M19.2238 1C19.2238 0.447715 19.6715 0 20.2238 0H27.6667C28.2189 0 28.6667 0.447715 28.6667 1V8.39444C28.6667 8.94673 28.2189 9.39444 27.6667 9.39444C27.1144 9.39444 26.6667 8.94673 26.6667 8.39444V3.40381L18.4855 11.5351C17.8603 12.1566 17.3213 12.6923 16.8319 13.0636C16.3072 13.4616 15.7243 13.7627 15.0067 13.7626C14.2891 13.7626 13.7062 13.4613 13.1817 13.0632C12.6923 12.6918 12.1535 12.156 11.5284 11.5343L11.1627 11.1707C10.4772 10.489 10.0327 10.05 9.6626 9.76915C9.31563 9.50583 9.15341 9.47645 9.04599 9.47649C8.93857 9.47653 8.77637 9.50603 8.42959 9.7696C8.05971 10.0507 7.61556 10.49 6.93051 11.1722L1.70562 16.3753C1.31428 16.765 0.681117 16.7636 0.291413 16.3723C-0.0982922 15.9809 -0.096965 15.3478 0.294377 14.9581L5.56578 9.70873C6.19101 9.08604 6.72989 8.54935 7.21936 8.17733C7.74403 7.77855 8.32714 7.47675 9.04526 7.47649C9.76338 7.47623 10.3467 7.7776 10.8717 8.17599C11.3614 8.54766 11.9007 9.08394 12.5264 9.70617L12.892 10.0698C13.577 10.7509 14.021 11.1895 14.3908 11.4701C14.7374 11.7332 14.8995 11.7626 15.0069 11.7626C15.1143 11.7626 15.2764 11.7333 15.6231 11.4702C15.9929 11.1897 16.4371 10.7512 17.1222 10.0703L25.242 2H20.2238C19.6715 2 19.2238 1.55228 19.2238 1Z" fill="var(--fill-0, black)" fill-opacity="0.8"/>
</svg>
