<svg preserveAspectRatio="none" width="100%" height="100%" overflow="visible" style="display: block;" viewBox="0 0 294.099 43.7071" fill="none" xmlns="http://www.w3.org/2000/svg">
<g id="logotype">
<path d="M10.7463 8.74141H19.3433L8.59701 43.7071H0L10.7463 8.74141Z" fill="#00CC99"/>
<path d="M24.9851 4.37071H33.5821L21.4925 43.7071H12.8955L24.9851 4.37071Z" fill="#00CC99"/>
<path d="M39.2239 0H47.8209L34.3881 43.7071H25.791L39.2239 0Z" fill="var(--fill-0, white)"/>
<path d="M286.049 33.5465C284.621 33.5465 283.418 33.3175 282.438 32.8595C281.459 32.4015 280.735 31.7742 280.266 30.9777C279.817 30.1812 279.643 29.2851 279.745 28.2894H283.846C283.826 28.7076 283.917 29.0859 284.121 29.4244C284.325 29.763 284.631 30.0318 285.039 30.2309C285.447 30.4102 285.957 30.4998 286.569 30.4998C287.12 30.4998 287.589 30.4201 287.977 30.2608C288.365 30.1015 288.66 29.8825 288.864 29.6037C289.089 29.3249 289.211 29.0162 289.232 28.6777C289.252 28.3193 289.15 28.0405 288.926 27.8413C288.722 27.6223 288.416 27.4431 288.008 27.3037C287.6 27.1643 287.12 27.0448 286.569 26.9452C285.855 26.8058 285.172 26.6266 284.519 26.4076C283.866 26.1686 283.295 25.8898 282.806 25.5712C282.316 25.2526 281.928 24.8643 281.643 24.4063C281.378 23.9284 281.255 23.3609 281.276 22.7037C281.337 21.7479 281.663 20.9016 282.255 20.1648C282.867 19.428 283.683 18.8505 284.703 18.4323C285.743 17.9942 286.937 17.7752 288.283 17.7752C290.139 17.7752 291.578 18.1934 292.598 19.0297C293.638 19.8661 294.138 21.0011 294.097 22.4349H290.15C290.109 21.9371 289.874 21.5487 289.446 21.27C289.038 20.9912 288.487 20.8518 287.793 20.8518C287.079 20.8518 286.498 21.0011 286.049 21.2998C285.6 21.5786 285.366 21.9271 285.345 22.3453C285.345 22.6241 285.447 22.873 285.651 23.092C285.876 23.2912 286.202 23.4704 286.631 23.6297C287.059 23.7691 287.589 23.8985 288.222 24.018C289.038 24.1972 289.772 24.3963 290.425 24.6154C291.078 24.8344 291.639 25.1033 292.108 25.4219C292.577 25.7206 292.924 26.0989 293.149 26.5569C293.373 27.0149 293.465 27.5825 293.424 28.2595C293.383 29.3348 293.036 30.2708 292.384 31.0673C291.731 31.8638 290.854 32.4811 289.752 32.9192C288.671 33.3374 287.436 33.5465 286.049 33.5465Z" fill="var(--fill-0, white)"/>
<path d="M268.626 33.5468C267.361 33.5468 266.269 33.2481 265.351 32.6507C264.454 32.0334 263.77 31.207 263.301 30.1715C262.852 29.1161 262.658 27.9313 262.72 26.617C262.781 25.3425 263.036 24.1776 263.485 23.1222C263.954 22.0469 264.576 21.111 265.351 20.3144C266.147 19.5179 267.055 18.9006 268.075 18.4625C269.095 18.0045 270.196 17.7755 271.38 17.7755C272.583 17.7755 273.562 17.9945 274.317 18.4326C275.072 18.8508 275.633 19.3984 276 20.0755L277.5 11.682H281.631L277.775 33.1884H274.103L274.011 31.1273C273.644 31.5455 273.205 31.9438 272.695 32.3221C272.185 32.7005 271.594 32.9992 270.921 33.2182C270.247 33.4373 269.482 33.5468 268.626 33.5468ZM270.339 30.0222C271.216 30.0222 272.012 29.8031 272.726 29.365C273.44 28.907 274.011 28.2997 274.44 27.543C274.888 26.7863 275.133 25.9399 275.174 25.004C275.215 24.2473 275.103 23.6001 274.837 23.0625C274.572 22.5049 274.174 22.0768 273.644 21.7781C273.134 21.4594 272.512 21.3001 271.777 21.3001C270.9 21.3001 270.105 21.5192 269.391 21.9573C268.697 22.3755 268.136 22.9529 267.708 23.6897C267.279 24.4265 267.045 25.2629 267.004 26.1988C266.963 26.9356 267.065 27.5927 267.31 28.1702C267.575 28.7477 267.963 29.2057 268.473 29.5442C268.983 29.8629 269.605 30.0222 270.339 30.0222Z" fill="var(--fill-0, white)"/>
<path d="M251.098 33.5465C249.914 33.5465 248.956 33.3673 248.221 33.0088C247.507 32.6305 246.977 32.1327 246.63 31.5153C246.304 30.8781 246.161 30.1812 246.202 29.4244C246.242 28.389 246.569 27.4929 247.181 26.7362C247.793 25.9795 248.65 25.392 249.751 24.9738C250.873 24.5557 252.179 24.3466 253.668 24.3466H257.463C257.605 23.6098 257.616 23.0024 257.493 22.5245C257.391 22.0267 257.146 21.6583 256.759 21.4193C256.371 21.1803 255.82 21.0609 255.106 21.0609C254.351 21.0609 253.668 21.2301 253.056 21.5687C252.464 21.8873 252.036 22.3851 251.771 23.0622H247.762C248.068 21.9868 248.599 21.0609 249.353 20.2843C250.108 19.4877 251.026 18.8704 252.107 18.4323C253.209 17.9942 254.413 17.7752 255.718 17.7752C257.167 17.7752 258.37 18.0241 259.329 18.5219C260.308 18.9998 261.002 19.6869 261.41 20.583C261.838 21.4791 261.93 22.5743 261.685 23.8686L260.002 33.1881H256.391L256.453 30.9179C256.147 31.2963 255.81 31.6547 255.443 31.9933C255.096 32.3119 254.698 32.5907 254.249 32.8296C253.801 33.0487 253.311 33.2179 252.781 33.3374C252.271 33.4768 251.71 33.5465 251.098 33.5465ZM252.628 30.44C253.138 30.44 253.627 30.3504 254.096 30.1712C254.566 29.9721 254.984 29.7132 255.351 29.3946C255.718 29.0561 256.024 28.6777 256.269 28.2595C256.534 27.8214 256.728 27.3634 256.851 26.8855V26.8258H253.699C253.087 26.8258 252.556 26.9154 252.107 27.0946C251.659 27.2539 251.312 27.4929 251.067 27.8115C250.822 28.1102 250.69 28.4686 250.669 28.8868C250.628 29.3846 250.792 29.7729 251.159 30.0517C251.526 30.3106 252.016 30.44 252.628 30.44Z" fill="var(--fill-0, white)"/>
<path d="M237.006 33.5465C235.598 33.5465 234.384 33.2677 233.364 32.7101C232.364 32.1526 231.599 31.366 231.069 30.3504C230.559 29.3348 230.345 28.15 230.426 26.7959C230.467 25.5414 230.722 24.3764 231.191 23.3011C231.681 22.2059 232.344 21.25 233.18 20.4336C234.017 19.5972 234.996 18.9501 236.118 18.4921C237.24 18.0141 238.485 17.7752 239.851 17.7752C241.239 17.7752 242.422 18.054 243.401 18.6115C244.38 19.1691 245.115 19.9258 245.604 20.8816C246.094 21.8375 246.308 22.9427 246.247 24.1972C246.247 24.6154 246.196 25.0435 246.094 25.4816C246.012 25.8998 245.92 26.2881 245.818 26.6465H233.333L233.762 24.1972H242.146C242.228 23.5202 242.157 22.9526 241.932 22.4946C241.708 22.0167 241.361 21.6583 240.892 21.4193C240.443 21.1803 239.913 21.0609 239.301 21.0609C238.587 21.0609 237.903 21.2202 237.25 21.5388C236.618 21.8375 236.077 22.3055 235.629 22.9427C235.18 23.5799 234.864 24.3864 234.68 25.3621L234.527 26.2284C234.384 27.005 234.404 27.7019 234.588 28.3193C234.792 28.9167 235.149 29.3946 235.659 29.753C236.169 30.0915 236.802 30.2608 237.556 30.2608C238.332 30.2608 238.995 30.1015 239.545 29.7829C240.096 29.4643 240.545 29.0561 240.892 28.5582H245.115C244.645 29.4941 244.003 30.3405 243.187 31.0972C242.391 31.8539 241.463 32.4513 240.402 32.8894C239.362 33.3274 238.23 33.5465 237.006 33.5465Z" fill="var(--fill-0, white)"/>
<path d="M215.429 33.1887L219.193 12.2797H223.324L220.141 30.0523H229.536L228.954 33.1887H215.429Z" fill="var(--fill-0, white)"/>
<path d="M203.283 33.5465C201.875 33.5465 200.651 33.2578 199.611 32.6803C198.591 32.1028 197.815 31.3063 197.285 30.2907C196.775 29.2751 196.551 28.1002 196.612 26.766C196.673 25.4916 196.948 24.3167 197.438 23.2414C197.948 22.1461 198.631 21.1903 199.488 20.3739C200.345 19.5574 201.335 18.9202 202.457 18.4622C203.579 18.0042 204.792 17.7752 206.098 17.7752C208.077 17.7752 209.658 18.2929 210.841 19.3284C212.024 20.3639 212.616 21.7977 212.616 23.6297H208.271C208.25 22.873 207.975 22.2855 207.444 21.8674C206.934 21.4492 206.282 21.2401 205.486 21.2401C204.65 21.2401 203.885 21.4691 203.191 21.9271C202.518 22.3652 201.977 22.9725 201.569 23.7492C201.161 24.5258 200.926 25.4119 200.865 26.4076C200.845 26.9851 200.896 27.5028 201.018 27.9608C201.141 28.4188 201.335 28.8071 201.6 29.1257C201.865 29.4444 202.181 29.6933 202.548 29.8725C202.936 30.0318 203.375 30.1115 203.864 30.1115C204.415 30.1115 204.925 30.0218 205.394 29.8426C205.884 29.6435 206.312 29.3647 206.679 29.0063C207.067 28.6478 207.353 28.2197 207.536 27.7219H211.912C211.463 28.8768 210.81 29.8924 209.954 30.7686C209.117 31.6448 208.128 32.3318 206.985 32.8296C205.843 33.3075 204.609 33.5465 203.283 33.5465Z" fill="var(--fill-0, white)"/>
<path d="M189.654 33.1881L192.378 18.1336H196.509L193.785 33.1881H189.654ZM195.224 16.1622C194.469 16.1622 193.857 15.9432 193.387 15.5051C192.918 15.0471 192.684 14.4994 192.684 13.8622C192.684 13.1852 192.918 12.6276 193.387 12.1895C193.857 11.7514 194.469 11.5324 195.224 11.5324C195.978 11.5324 196.59 11.7514 197.06 12.1895C197.549 12.6276 197.794 13.1852 197.794 13.8622C197.794 14.4994 197.549 15.0471 197.06 15.5051C196.57 15.9432 195.958 16.1622 195.224 16.1622Z" fill="var(--fill-0, white)"/>
<path d="M172.788 33.1881L175.481 18.1336H179.122L179.061 20.5232C179.673 19.6869 180.448 19.0198 181.387 18.5219C182.345 18.0241 183.416 17.7752 184.6 17.7752C185.926 17.7752 186.976 18.054 187.751 18.6115C188.527 19.1691 189.047 19.9457 189.312 20.9414C189.598 21.9371 189.618 23.1219 189.373 24.4959L187.782 33.1881H183.682L185.181 24.8842C185.385 23.7093 185.293 22.8033 184.906 22.1661C184.518 21.5089 183.773 21.1804 182.672 21.1804C181.978 21.1804 181.336 21.3397 180.744 21.6583C180.173 21.957 179.673 22.3951 179.244 22.9725C178.836 23.55 178.551 24.247 178.388 25.0634L176.919 33.1881H172.788Z" fill="var(--fill-0, white)"/>
<path d="M161.961 33.5465C160.778 33.5465 159.819 33.3673 159.085 33.0088C158.371 32.6305 157.841 32.1327 157.494 31.5153C157.167 30.8781 157.025 30.1812 157.065 29.4244C157.106 28.389 157.433 27.4929 158.045 26.7362C158.657 25.9795 159.513 25.392 160.615 24.9738C161.737 24.5557 163.043 24.3466 164.532 24.3466H168.326C168.469 23.6098 168.479 23.0024 168.357 22.5245C168.255 22.0267 168.01 21.6583 167.623 21.4193C167.235 21.1803 166.684 21.0609 165.97 21.0609C165.215 21.0609 164.532 21.2301 163.92 21.5687C163.328 21.8873 162.9 22.3851 162.635 23.0622H158.626C158.932 21.9868 159.462 21.0609 160.217 20.2843C160.972 19.4877 161.89 18.8704 162.971 18.4323C164.073 17.9942 165.276 17.7752 166.582 17.7752C168.031 17.7752 169.234 18.0241 170.193 18.5219C171.172 18.9998 171.866 19.6869 172.274 20.583C172.702 21.4791 172.794 22.5743 172.549 23.8686L170.866 33.1881H167.255L167.317 30.9179C167.011 31.2963 166.674 31.6547 166.307 31.9933C165.96 32.3119 165.562 32.5907 165.113 32.8296C164.664 33.0487 164.175 33.2179 163.644 33.3374C163.134 33.4768 162.573 33.5465 161.961 33.5465ZM163.491 30.44C164.001 30.44 164.491 30.3504 164.96 30.1712C165.429 29.9721 165.848 29.7132 166.215 29.3946C166.582 29.0561 166.888 28.6777 167.133 28.2595C167.398 27.8214 167.592 27.3634 167.714 26.8855V26.8258H164.562C163.95 26.8258 163.42 26.9154 162.971 27.0946C162.522 27.2539 162.176 27.4929 161.931 27.8115C161.686 28.1102 161.553 28.4686 161.533 28.8868C161.492 29.3846 161.655 29.7729 162.023 30.0517C162.39 30.3106 162.879 30.44 163.491 30.44Z" fill="var(--fill-0, white)"/>
<path d="M146.557 40.1179C145.191 40.1179 144.007 39.9586 143.008 39.64C142.008 39.3213 141.253 38.8434 140.743 38.2062C140.213 37.569 139.968 36.7724 140.009 35.8166C140.05 35.0002 140.305 34.2534 140.774 33.5764C141.223 32.8993 141.865 32.292 142.702 31.7543C143.538 31.2166 144.528 30.7487 145.67 30.3504L146.894 32.3517C145.833 32.6703 145.068 33.0686 144.599 33.5465C144.13 34.0443 143.885 34.572 143.865 35.1296C143.844 35.5478 143.956 35.9062 144.201 36.2049C144.466 36.5036 144.844 36.7227 145.333 36.8621C145.843 37.0014 146.415 37.0711 147.047 37.0711C148.067 37.0711 148.924 36.882 149.618 36.5036C150.311 36.1253 150.668 35.5577 150.689 34.801C150.729 34.3231 150.576 33.9248 150.23 33.6062C149.883 33.2876 149.179 33.0885 148.118 33.0088C147.18 32.9491 146.323 32.8495 145.548 32.7101C144.793 32.5508 144.12 32.3716 143.528 32.1725C142.957 31.9534 142.467 31.7145 142.059 31.4556C141.672 31.1967 141.355 30.9279 141.111 30.6491L141.233 29.9621L145.058 26.6167L147.812 27.5426L143.344 31.2166L144.874 29.1556C145.078 29.295 145.293 29.4244 145.517 29.5439C145.762 29.6634 146.037 29.7729 146.343 29.8725C146.67 29.9521 147.067 30.0318 147.537 30.1115C148.006 30.1911 148.587 30.2608 149.281 30.3205C150.566 30.4201 151.596 30.6491 152.372 31.0076C153.167 31.3461 153.738 31.8041 154.085 32.3816C154.432 32.9591 154.575 33.656 154.514 34.4725C154.473 35.5478 154.116 36.5136 153.443 37.3698C152.79 38.2261 151.872 38.8932 150.689 39.3711C149.505 39.869 148.128 40.1179 146.557 40.1179ZM148.546 28.7374C147.384 28.7374 146.394 28.5383 145.578 28.14C144.783 27.7219 144.181 27.1543 143.773 26.4375C143.385 25.7206 143.212 24.9141 143.253 24.018C143.314 22.8431 143.661 21.7877 144.293 20.8518C144.946 19.9159 145.813 19.1691 146.894 18.6115C147.996 18.054 149.209 17.7752 150.536 17.7752C151.719 17.7752 152.708 17.9942 153.504 18.4323C154.32 18.8505 154.922 19.418 155.309 20.1349C155.697 20.8319 155.86 21.6284 155.799 22.5245C155.758 23.6795 155.411 24.7349 154.758 25.6907C154.126 26.6266 153.269 27.3734 152.188 27.931C151.107 28.4686 149.893 28.7374 148.546 28.7374ZM149.097 25.6907C149.995 25.6907 150.74 25.4418 151.331 24.944C151.923 24.4262 152.239 23.7492 152.28 22.9128C152.321 22.2358 152.127 21.728 151.698 21.3894C151.29 21.0509 150.719 20.8816 149.985 20.8816C149.087 20.8816 148.332 21.1405 147.72 21.6583C147.129 22.1561 146.812 22.8232 146.772 23.6596C146.731 24.3167 146.925 24.8245 147.353 25.1829C147.802 25.5214 148.383 25.6907 149.097 25.6907ZM152.525 20.9713L152.341 18.1336H158.706L158.247 20.5531L152.525 20.9713Z" fill="var(--fill-0, white)"/>
<path d="M131.191 33.1881L133.884 18.1336H137.587L137.495 20.8518C137.985 20.2146 138.546 19.6769 139.178 19.2388C139.831 18.7808 140.545 18.4224 141.32 18.1635C142.095 17.9046 142.911 17.7752 143.768 17.7752L143.034 22.0466H141.596C140.984 22.0466 140.402 22.1163 139.851 22.2557C139.321 22.3751 138.831 22.5942 138.382 22.9128C137.954 23.2115 137.587 23.6197 137.281 24.1375C136.975 24.6552 136.75 25.3024 136.608 26.079L135.322 33.1881H131.191Z" fill="var(--fill-0, white)"/>
<path d="M119.228 33.5471C117.371 33.5471 115.749 33.1389 114.362 32.3224C112.975 31.506 111.914 30.3909 111.18 28.977C110.445 27.5433 110.129 25.9004 110.231 24.0485C110.292 22.3558 110.659 20.7727 111.333 19.2992C112.026 17.8256 112.944 16.5412 114.087 15.4459C115.229 14.3308 116.555 13.4646 118.065 12.8473C119.574 12.2299 121.186 11.9213 122.9 11.9213C124.756 11.9213 126.378 12.3295 127.765 13.146C129.152 13.9624 130.203 15.0875 130.917 16.5213C131.651 17.9351 131.978 19.558 131.896 21.3901C131.815 23.1026 131.427 24.6957 130.733 26.1692C130.06 27.6428 129.152 28.9372 128.01 30.0523C126.867 31.1476 125.541 32.0038 124.032 32.6211C122.543 33.2385 120.941 33.5471 119.228 33.5471ZM119.778 29.9329C120.839 29.9329 121.829 29.7238 122.747 29.3056C123.685 28.8874 124.511 28.3099 125.225 27.5731C125.939 26.8164 126.5 25.9402 126.908 24.9446C127.337 23.929 127.582 22.8238 127.643 21.629C127.704 20.3944 127.541 19.329 127.153 18.4329C126.765 17.5169 126.164 16.81 125.348 16.3122C124.552 15.8143 123.552 15.5654 122.349 15.5654C121.288 15.5654 120.288 15.7745 119.35 16.1927C118.432 16.591 117.616 17.1684 116.902 17.9251C116.188 18.6619 115.617 19.5282 115.188 20.5238C114.76 21.5195 114.525 22.6147 114.484 23.8095C114.403 25.0441 114.566 26.1195 114.974 27.0355C115.382 27.9515 115.994 28.6684 116.81 29.1861C117.626 29.6839 118.616 29.9329 119.778 29.9329Z" fill="var(--fill-0, white)"/>
<path d="M87.0696 39.7594L90.9864 18.1336H94.6585L94.7197 20.2245C95.1277 19.7466 95.5867 19.3284 96.0967 18.97C96.6067 18.5916 97.1881 18.3029 97.8409 18.1037C98.4938 17.8847 99.2078 17.7752 99.983 17.7752C101.289 17.7752 102.4 18.0838 103.318 18.7011C104.257 19.2985 104.961 20.115 105.43 21.1505C105.919 22.186 106.134 23.3609 106.072 24.6751C106.011 25.8898 105.746 27.0448 105.277 28.14C104.808 29.2154 104.175 30.1612 103.38 30.9777C102.584 31.7742 101.666 32.4015 100.626 32.8595C99.6056 33.3175 98.504 33.5465 97.3207 33.5465C96.5863 33.5465 95.9131 33.4469 95.3011 33.2478C94.7095 33.0487 94.1995 32.7798 93.7711 32.4413C93.3427 32.0829 92.9959 31.6746 92.7307 31.2166L91.2006 39.7594H87.0696ZM97.0147 30.0218C97.892 30.0218 98.6774 29.8128 99.371 29.3946C100.085 28.9764 100.656 28.3989 101.085 27.6621C101.513 26.9253 101.748 26.089 101.788 25.153C101.85 24.4163 101.737 23.7591 101.452 23.1816C101.187 22.6042 100.789 22.1461 100.258 21.8076C99.7484 21.4691 99.116 21.2998 98.3612 21.2998C97.4839 21.2998 96.6883 21.5189 95.9743 21.957C95.2807 22.3751 94.7197 22.9626 94.2913 23.7193C93.8629 24.4561 93.6181 25.3024 93.5569 26.2582C93.5161 26.995 93.6283 27.6522 93.8935 28.2296C94.1791 28.7872 94.5871 29.2253 95.1175 29.5439C95.6479 29.8625 96.2803 30.0218 97.0147 30.0218Z" fill="var(--fill-0, white)"/>
<path d="M79.0442 33.5465C77.657 33.5465 76.4534 33.2478 75.4334 32.6504C74.4134 32.0331 73.6381 31.1967 73.1077 30.1413C72.5773 29.0859 72.3529 27.8812 72.4345 26.5271C72.4753 25.2924 72.7405 24.1474 73.2301 23.092C73.7197 22.0167 74.3726 21.0907 75.1886 20.3141C76.025 19.5176 76.9838 18.9003 78.065 18.4622C79.1462 18.0042 80.3193 17.7752 81.5841 17.7752C82.9713 17.7752 84.1749 18.0739 85.1949 18.6713C86.215 19.2687 86.9902 20.0951 87.5206 21.1505C88.0714 22.186 88.3162 23.3907 88.255 24.7647C88.1938 26.0193 87.9184 27.1842 87.4288 28.2595C86.9392 29.3149 86.2762 30.2409 85.4397 31.0374C84.6033 31.834 83.6445 32.4513 82.5633 32.8894C81.4821 33.3274 80.3091 33.5465 79.0442 33.5465ZM79.5951 30.0517C80.4111 30.0517 81.1353 29.8426 81.7677 29.4244C82.4205 28.9864 82.9407 28.379 83.3283 27.6024C83.7363 26.8258 83.9607 25.9297 84.0015 24.9141C84.0627 24.1375 83.9709 23.4803 83.7261 22.9427C83.4813 22.3851 83.1243 21.9669 82.6551 21.6881C82.2063 21.4094 81.6759 21.27 81.0639 21.27C80.2683 21.27 79.544 21.489 78.8912 21.9271C78.2588 22.3652 77.7386 22.9725 77.3306 23.7492C76.943 24.5059 76.7186 25.392 76.6574 26.4076C76.6166 27.1842 76.7186 27.8513 76.9634 28.4089C77.2082 28.9465 77.555 29.3547 78.0038 29.6335C78.473 29.9123 79.0034 30.0517 79.5951 30.0517Z" fill="var(--fill-0, white)"/>
<path d="M62.7224 33.1887L65.9355 15.4758H59.6623L60.2438 12.2797H76.8904L76.309 15.4758H70.0359L66.8535 33.1887H62.7224Z" fill="var(--fill-0, white)"/>
</g>
</svg>
