<svg preserveAspectRatio="none" width="100%" height="100%" overflow="visible" style="display: block;" viewBox="0 0 3.93905 5.17" fill="none" xmlns="http://www.w3.org/2000/svg">
<path id="secure-icon" fill-rule="evenodd" clip-rule="evenodd" d="M1.96952 0C1.28969 0 0.738571 0.551116 0.738571 1.23095V1.72333H0.492381C0.220446 1.72333 0 1.94378 0 2.21571V4.67762C0 4.94955 0.220446 5.17 0.492381 5.17H3.44667C3.7186 5.17 3.93905 4.94955 3.93905 4.67762V2.21571C3.93905 1.94378 3.7186 1.72333 3.44667 1.72333H3.20047V1.23095C3.20047 0.551116 2.64936 0 1.96952 0ZM2.70809 1.72333V1.23095C2.70809 0.82305 2.37742 0.492381 1.96952 0.492381C1.56162 0.492381 1.23095 0.82305 1.23095 1.23095V1.72333H2.70809Z" fill="var(--fill-0, #606367)"/>
</svg>
