<svg preserveAspectRatio="none" width="100%" height="100%" overflow="visible" style="display: block;" viewBox="0 0 21 21" fill="none" xmlns="http://www.w3.org/2000/svg">
<g id="Vector">
<path d="M19.3205 0H1.79437C0.836719 0 0 0.689062 0 1.63547V19.2005C0 20.152 0.836719 21 1.79437 21H19.3153C20.2781 21 21 20.1464 21 19.2005V1.63547C21.0056 0.689062 20.2781 0 19.3205 0ZM6.50953 17.5045H3.50109V8.15063H6.50953V17.5045ZM5.10938 6.72844H5.08781C4.125 6.72844 3.50156 6.01172 3.50156 5.11453C3.50156 4.20094 4.14141 3.50109 5.12578 3.50109C6.11016 3.50109 6.7125 4.19578 6.73406 5.11453C6.73359 6.01172 6.11016 6.72844 5.10938 6.72844ZM17.5045 17.5045H14.4961V12.39C14.4961 11.1647 14.0583 10.3275 12.9698 10.3275C12.1383 10.3275 11.6461 10.89 11.4272 11.438C11.3452 11.6348 11.3231 11.903 11.3231 12.1767V17.5045H8.31469V8.15063H11.3231V9.45234C11.7609 8.82891 12.4448 7.93172 14.0363 7.93172C16.0111 7.93172 17.505 9.23344 17.505 12.0398L17.5045 17.5045Z" fill="var(--fill-0, white)" fill-opacity="0.8"/>
<path d="M1.79395 0.5H19.3203C20.0202 0.5 20.5039 0.982804 20.5 1.63281V19.2002C20.5 19.917 19.9573 20.4999 19.3154 20.5H1.79395C1.11553 20.4997 0.5 19.8784 0.5 19.2002V1.63574L0.506836 1.52148C0.570339 0.958552 1.09903 0.500189 1.79395 0.5ZM3.00098 18.0049H7.00977V7.65039H3.00098V18.0049ZM14.0361 7.43164C13.1373 7.43166 12.4669 7.6879 11.957 8.05078C11.9108 8.08372 11.8665 8.11809 11.8232 8.15234V7.65039H7.81445V18.0049H11.8232V12.1768C11.8232 11.9106 11.8476 11.7285 11.8887 11.6299L11.8916 11.623C12.0642 11.1912 12.4124 10.8272 12.9697 10.8271C13.3648 10.8271 13.584 10.9678 13.7275 11.1797C13.8926 11.4235 13.9961 11.8228 13.9961 12.3896V18.0049H18.0049V12.04C18.0049 10.5513 17.608 9.38959 16.8799 8.5957C16.1477 7.79759 15.1362 7.43164 14.0361 7.43164ZM5.12598 3.00098C4.51059 3.00098 3.97158 3.2222 3.58691 3.61523C3.20418 4.0063 3.00202 4.53927 3.00195 5.11426C3.00195 6.26215 3.82417 7.22852 5.08789 7.22852H5.10938C5.73453 7.22852 6.27382 7.00168 6.65625 6.60547C7.03567 6.21212 7.23398 5.68001 7.23438 5.11523V5.10254C7.22106 4.53755 7.0273 4.00869 6.65234 3.61719C6.27346 3.22159 5.74197 3.00102 5.12598 3.00098Z" stroke="var(--stroke-0, white)" stroke-opacity="0.1"/>
</g>
</svg>
