<svg preserveAspectRatio="none" width="100%" height="100%" overflow="visible" style="display: block;" viewBox="0 0 1.47714 6.40095" fill="none" xmlns="http://www.w3.org/2000/svg">
<g id="menu-icon">
<path d="M1.47714 0.738571C1.47714 1.14647 1.14647 1.47714 0.738571 1.47714C0.33067 1.47714 0 1.14647 0 0.738571C0 0.33067 0.33067 0 0.738571 0C1.14647 0 1.47714 0.33067 1.47714 0.738571Z" fill="var(--fill-0, #606367)"/>
<path d="M1.47714 3.20047C1.47714 3.60838 1.14647 3.93905 0.738571 3.93905C0.33067 3.93905 0 3.60838 0 3.20047C0 2.79257 0.33067 2.4619 0.738571 2.4619C1.14647 2.4619 1.47714 2.79257 1.47714 3.20047Z" fill="var(--fill-0, #606367)"/>
<path d="M1.47714 5.66238C1.47714 6.07028 1.14647 6.40095 0.738571 6.40095C0.33067 6.40095 0 6.07028 0 5.66238C0 5.25448 0.33067 4.92381 0.738571 4.92381C1.14647 4.92381 1.47714 5.25448 1.47714 5.66238Z" fill="var(--fill-0, #606367)"/>
</g>
</svg>
