<svg preserveAspectRatio="none" width="100%" height="100%" overflow="visible" style="display: block;" viewBox="0 0 3.9045 3.9045" fill="none" xmlns="http://www.w3.org/2000/svg">
<path id="tab-close-icon" d="M0.101975 3.31014C-0.0339918 3.44611 -0.0339918 3.66656 0.101975 3.80252C0.237943 3.93849 0.458389 3.93849 0.594356 3.80252L1.95225 2.44463L3.31014 3.80252C3.44611 3.93849 3.66656 3.93849 3.80252 3.80252C3.93849 3.66656 3.93849 3.44611 3.80252 3.31014L2.44463 1.95225L3.80252 0.594356C3.93849 0.458389 3.93849 0.237943 3.80252 0.101975C3.66656 -0.0339918 3.44611 -0.0339918 3.31014 0.101975L1.95225 1.45987L0.594356 0.101975C0.458389 -0.0339918 0.237943 -0.0339918 0.101975 0.101975C-0.0339918 0.237943 -0.0339918 0.458389 0.101975 0.594356L1.45987 1.95225L0.101975 3.31014Z" fill="var(--fill-0, #5E6063)"/>
</svg>
