<svg preserveAspectRatio="none" width="100%" height="100%" overflow="visible" style="display: block;" viewBox="0 0 125 25" fill="none" xmlns="http://www.w3.org/2000/svg">
<g id="Stars">
<path id="Star 1" d="M11.3193 3.39673C11.7084 2.27728 13.2916 2.27728 13.6807 3.39673L15.1533 7.63331C15.325 8.12715 15.7859 8.46198 16.3086 8.47264L20.7929 8.56402C21.9778 8.58817 22.467 10.0938 21.5226 10.8099L17.9484 13.5196C17.5318 13.8354 17.3558 14.3772 17.5072 14.8776L18.806 19.1707C19.1492 20.3051 17.8684 21.2356 16.8956 20.5587L13.214 17.9968C12.7848 17.6982 12.2152 17.6982 11.786 17.9968L8.10444 20.5587C7.13164 21.2356 5.85083 20.3051 6.19402 19.1707L7.49284 14.8776C7.64423 14.3772 7.4682 13.8354 7.05158 13.5196L3.47742 10.8099C2.53301 10.0938 3.02223 8.58817 4.20714 8.56402L8.69143 8.47264C9.21414 8.46198 9.67501 8.12715 9.84666 7.63331L11.3193 3.39673Z" fill="var(--fill-0, #10B880)"/>
<path id="Star 2" d="M36.3193 3.39673C36.7084 2.27728 38.2916 2.27728 38.6807 3.39673L40.1533 7.63331C40.325 8.12715 40.7859 8.46198 41.3086 8.47264L45.7929 8.56402C46.9778 8.58817 47.467 10.0938 46.5226 10.8099L42.9484 13.5196C42.5318 13.8354 42.3558 14.3772 42.5072 14.8776L43.806 19.1707C44.1492 20.3051 42.8684 21.2356 41.8956 20.5587L38.214 17.9968C37.7848 17.6982 37.2152 17.6982 36.786 17.9968L33.1044 20.5587C32.1316 21.2356 30.8508 20.3051 31.194 19.1707L32.4928 14.8776C32.6442 14.3772 32.4682 13.8354 32.0516 13.5196L28.4774 10.8099C27.533 10.0938 28.0222 8.58817 29.2071 8.56402L33.6914 8.47264C34.2141 8.46198 34.675 8.12715 34.8467 7.63331L36.3193 3.39673Z" fill="var(--fill-0, #10B880)"/>
<path id="Star 3" d="M61.3193 3.39673C61.7084 2.27728 63.2916 2.27728 63.6807 3.39673L65.1533 7.63331C65.325 8.12715 65.7859 8.46198 66.3086 8.47264L70.7929 8.56402C71.9778 8.58817 72.467 10.0938 71.5226 10.8099L67.9484 13.5196C67.5318 13.8354 67.3558 14.3772 67.5072 14.8776L68.806 19.1707C69.1492 20.3051 67.8684 21.2356 66.8956 20.5587L63.214 17.9968C62.7848 17.6982 62.2152 17.6982 61.786 17.9968L58.1044 20.5587C57.1316 21.2356 55.8508 20.3051 56.194 19.1707L57.4928 14.8776C57.6442 14.3772 57.4682 13.8354 57.0516 13.5196L53.4774 10.8099C52.533 10.0938 53.0222 8.58817 54.2071 8.56402L58.6914 8.47264C59.2141 8.46198 59.675 8.12715 59.8467 7.63331L61.3193 3.39673Z" fill="var(--fill-0, #10B880)"/>
<path id="Star 4" d="M86.3193 3.39673C86.7084 2.27728 88.2916 2.27728 88.6807 3.39673L90.1533 7.63331C90.325 8.12715 90.7859 8.46198 91.3086 8.47264L95.7929 8.56402C96.9778 8.58817 97.467 10.0938 96.5226 10.8099L92.9484 13.5196C92.5318 13.8354 92.3558 14.3772 92.5072 14.8776L93.806 19.1707C94.1492 20.3051 92.8684 21.2356 91.8956 20.5587L88.214 17.9968C87.7848 17.6982 87.2152 17.6982 86.786 17.9968L83.1044 20.5587C82.1316 21.2356 80.8508 20.3051 81.194 19.1707L82.4928 14.8776C82.6442 14.3772 82.4682 13.8354 82.0516 13.5196L78.4774 10.8099C77.533 10.0938 78.0222 8.58817 79.2071 8.56402L83.6914 8.47264C84.2141 8.46198 84.675 8.12715 84.8467 7.63331L86.3193 3.39673Z" fill="var(--fill-0, #10B880)"/>
<path id="Star 5" d="M111.319 3.39673C111.708 2.27728 113.292 2.27728 113.681 3.39673L115.153 7.63331C115.325 8.12715 115.786 8.46198 116.309 8.47264L120.793 8.56402C121.978 8.58817 122.467 10.0938 121.523 10.8099L117.948 13.5196C117.532 13.8354 117.356 14.3772 117.507 14.8776L118.806 19.1707C119.149 20.3051 117.868 21.2356 116.896 20.5587L113.214 17.9968C112.785 17.6982 112.215 17.6982 111.786 17.9968L108.104 20.5587C107.132 21.2356 105.851 20.3051 106.194 19.1707L107.493 14.8776C107.644 14.3772 107.468 13.8354 107.052 13.5196L103.477 10.8099C102.533 10.0938 103.022 8.58817 104.207 8.56402L108.691 8.47264C109.214 8.46198 109.675 8.12715 109.847 7.63331L111.319 3.39673Z" fill="var(--fill-0, #10B880)"/>
</g>
</svg>
