<svg preserveAspectRatio="none" width="100%" height="100%" overflow="visible" style="display: block;" viewBox="0 0 28.6667 28.6667" fill="none" xmlns="http://www.w3.org/2000/svg">
<g id="Vector">
<path d="M8.66667 18.3333C8.66667 17.781 8.21895 17.3333 7.66667 17.3333C7.11438 17.3333 6.66667 17.781 6.66667 18.3333V22.3333C6.66667 22.8856 7.11438 23.3333 7.66667 23.3333C8.21895 23.3333 8.66667 22.8856 8.66667 22.3333V18.3333Z" fill="var(--fill-0, black)" fill-opacity="0.8"/>
<path d="M14.3333 13.3333C14.8856 13.3333 15.3333 13.781 15.3333 14.3333V22.3333C15.3333 22.8856 14.8856 23.3333 14.3333 23.3333C13.781 23.3333 13.3333 22.8856 13.3333 22.3333V14.3333C13.3333 13.781 13.781 13.3333 14.3333 13.3333Z" fill="var(--fill-0, black)" fill-opacity="0.8"/>
<path d="M22 10.3333C22 9.78105 21.5523 9.33333 21 9.33333C20.4477 9.33333 20 9.78105 20 10.3333V22.3333C20 22.8856 20.4477 23.3333 21 23.3333C21.5523 23.3333 22 22.8856 22 22.3333V10.3333Z" fill="var(--fill-0, black)" fill-opacity="0.8"/>
<path fill-rule="evenodd" clip-rule="evenodd" d="M14.2568 2.82054e-07C11.179 -1.68841e-05 8.76692 -3.04778e-05 6.88494 0.252996C4.95863 0.511982 3.43859 1.05244 2.24552 2.24552C1.05244 3.43859 0.511982 4.95863 0.252996 6.88494C-3.04778e-05 8.76692 -1.68841e-05 11.179 2.82054e-07 14.2568V14.4098C-1.68841e-05 17.4877 -3.04778e-05 19.8997 0.252996 21.7817C0.511982 23.708 1.05244 25.2281 2.24552 26.4212C3.43859 27.6142 4.95863 28.1547 6.88494 28.4137C8.76692 28.6667 11.179 28.6667 14.2568 28.6667H14.4098C17.4877 28.6667 19.8997 28.6667 21.7817 28.4137C23.708 28.1547 25.2281 27.6142 26.4212 26.4212C27.6142 25.2281 28.1547 23.708 28.4137 21.7817C28.6667 19.8997 28.6667 17.4877 28.6667 14.4098V14.2568C28.6667 11.179 28.6667 8.76692 28.4137 6.88494C28.1547 4.95863 27.6142 3.43859 26.4212 2.24552C25.2281 1.05244 23.708 0.511982 21.7817 0.252996C19.8997 -3.04778e-05 17.4877 -1.68841e-05 14.4098 2.82054e-07H14.2568ZM3.65973 3.65973C4.41927 2.90019 5.4469 2.46433 7.15144 2.23516C8.88474 2.00212 11.1624 2 14.3333 2C17.5043 2 19.7819 2.00212 21.5152 2.23516C23.2198 2.46433 24.2474 2.90019 25.0069 3.65973C25.7665 4.41927 26.2023 5.4469 26.4315 7.15144C26.6645 8.88474 26.6667 11.1624 26.6667 14.3333C26.6667 17.5043 26.6645 19.7819 26.4315 21.5152C26.2023 23.2198 25.7665 24.2474 25.0069 25.0069C24.2474 25.7665 23.2198 26.2023 21.5152 26.4315C19.7819 26.6645 17.5043 26.6667 14.3333 26.6667C11.1624 26.6667 8.88474 26.6645 7.15144 26.4315C5.4469 26.2023 4.41927 25.7665 3.65973 25.0069C2.90019 24.2474 2.46433 23.2198 2.23516 21.5152C2.00212 19.7819 2 17.5043 2 14.3333C2 11.1624 2.00212 8.88474 2.23516 7.15144C2.46433 5.4469 2.90019 4.41927 3.65973 3.65973Z" fill="var(--fill-0, black)" fill-opacity="0.8"/>
</g>
</svg>
