<svg width="90" height="17" viewBox="0 0 90 17" fill="none" xmlns="http://www.w3.org/2000/svg">
<path d="M1.50846e-05 2.82715L0.489335 -2.8776e-05H13.788L13.3095 2.82715H8.35108L6.13283 16.2019H2.75108L4.96933 2.82715H1.50846e-05ZM25.2598 -2.8776e-05H28.6742L26.9452 10.5149C26.7495 11.6965 26.2964 12.7332 25.586 13.6248C24.8756 14.5092 23.9731 15.1979 22.8784 15.6908C21.7911 16.1838 20.5768 16.4303 19.2357 16.4303C17.8946 16.4303 16.7601 16.1838 15.8322 15.6908C14.9116 15.1979 14.2447 14.5092 13.8315 13.6248C13.4255 12.7332 13.3204 11.6965 13.5161 10.5149L15.2451 -2.8776e-05H18.6703L16.9849 10.2322C16.8834 10.8484 16.9269 11.3957 17.1153 11.8741C17.3111 12.3526 17.6337 12.7295 18.0831 13.005C18.5326 13.2805 19.0871 13.4182 19.7468 13.4182C20.4137 13.4182 21.0118 13.2805 21.541 13.005C22.0774 12.7295 22.5196 12.3526 22.8676 11.8741C23.2228 11.3957 23.4511 10.8484 23.5526 10.2322L25.2598 -2.8776e-05ZM30.8924 16.2019H27.228L35.492 -2.8776e-05H39.9177L42.8101 16.2019H39.1456L37.1666 3.69706H37.0361L30.8924 16.2019ZM31.7297 9.82987H40.3961L39.9394 12.5048H31.2621L31.7297 9.82987ZM60.2734 -2.8776e-05L57.5876 16.2019H54.619L49.28 6.01317H49.1604L47.4641 16.2019H44.0388L46.7247 -2.8776e-05H49.7367L55.0322 10.1887H55.1845L56.859 -2.8776e-05H60.2734ZM64.1118 16.2019L66.7977 -2.8776e-05H70.212L68.0046 13.3747H74.9421L74.4745 16.2019H64.1118ZM76.0295 16.2019L78.7153 -2.8776e-05H89.6326L89.1541 2.82715H81.673L81.0314 6.68735H87.958L87.4905 9.50366H80.5639L79.9223 13.3747H87.447L86.9794 16.2019H76.0295Z" fill="white"/>
</svg>
