<svg preserveAspectRatio="none" width="100%" height="100%" overflow="visible" style="display: block;" viewBox="0 0 23.997 18.0005" fill="none" xmlns="http://www.w3.org/2000/svg">
<g id="Vector">
<path d="M23.8428 3.97453C23.8428 1.86516 22.2912 0.168281 20.374 0.168281C17.7772 0.0468748 15.1287 0 12.4222 0H11.5784C8.87841 0 6.22529 0.0468749 3.62841 0.16875C1.71591 0.16875 0.164348 1.875 0.164348 3.98437C0.0471601 5.65266 -0.00252745 7.32141 0.000285051 8.99016C-0.00440245 10.6589 0.0487226 12.3292 0.15966 14.0011C0.15966 16.1105 1.71122 17.8214 3.62372 17.8214C6.35185 17.948 9.15029 18.0042 11.9956 17.9995C14.8456 18.0089 17.6362 17.9495 20.3675 17.8214C22.2847 17.8214 23.8362 16.1105 23.8362 14.0011C23.9487 12.3277 24.0003 10.6589 23.9956 8.98547C24.0062 7.31672 23.9553 5.64641 23.8428 3.97453ZM9.70341 13.5886V4.37766L16.5003 8.98078L9.70341 13.5886Z" fill="var(--fill-0, white)" fill-opacity="0.8"/>
<path d="M9.20313 14.5312L9.98438 14.0029L16.7813 9.39453L17.3916 8.98047L16.7803 8.56641L9.9834 3.96387L9.20313 3.43555V14.5312ZM0.65918 13.9844L0.658203 13.9678C0.548035 12.3074 0.495345 10.6483 0.5 8.99121V8.98926C0.497206 7.33102 0.546845 5.67439 0.663086 4.01953L0.664063 4.00195V3.98438C0.664063 2.105 2.03593 0.669234 3.62793 0.668945H3.63965L3.65137 0.667969C6.23841 0.546555 8.88382 0.500003 11.5781 0.5H12.4219C15.1228 0.5 17.7634 0.547018 20.3506 0.667969H20.374C21.9728 0.667969 23.3428 2.09718 23.3428 3.97461V3.99121L23.3438 4.00781C23.4554 5.6675 23.5066 7.32598 23.4961 8.98242H23.4951V8.9873C23.4998 10.6494 23.4486 12.3065 23.3369 13.9678L23.3359 13.9844V14.001C23.3359 15.8809 21.9637 17.3213 20.3672 17.3213H20.3555L20.3438 17.3223C17.6213 17.45 14.839 17.5093 11.9971 17.5H11.9951C9.15686 17.5047 6.36573 17.4484 3.64648 17.3223L3.63574 17.3213H3.62402C2.03258 17.3213 0.65918 15.8814 0.65918 14.001V13.9844Z" stroke="var(--stroke-0, white)" stroke-opacity="0.4"/>
</g>
</svg>
