<svg preserveAspectRatio="none" width="100%" height="100%" overflow="visible" style="display: block;" viewBox="0 0 197.047 29.2837" fill="none" xmlns="http://www.w3.org/2000/svg">
<g id="logotype">
<path d="M7.2 5.85674H12.96L5.76 29.2837H0L7.2 5.85674Z" fill="#00CC99"/>
<path d="M16.74 2.92837H22.5L14.4 29.2837H8.64L16.74 2.92837Z" fill="#00CC99"/>
<path d="M26.28 0H32.04L23.04 29.2837H17.28L26.28 0Z" fill="var(--fill-0, white)"/>
<path d="M191.653 22.4762C190.696 22.4762 189.89 22.3227 189.234 22.0159C188.578 21.709 188.092 21.2887 187.778 20.755C187.477 20.2214 187.361 19.621 187.429 18.9539H190.177C190.163 19.2341 190.225 19.4876 190.361 19.7144C190.498 19.9412 190.703 20.1213 190.976 20.2547C191.25 20.3748 191.591 20.4348 192.002 20.4348C192.371 20.4348 192.685 20.3815 192.945 20.2747C193.204 20.168 193.403 20.0212 193.539 19.8345C193.69 19.6477 193.772 19.4409 193.785 19.2141C193.799 18.9739 193.731 18.7871 193.58 18.6537C193.444 18.5069 193.238 18.3869 192.965 18.2935C192.692 18.2001 192.371 18.12 192.002 18.0533C191.523 17.9599 191.065 17.8398 190.628 17.6931C190.19 17.533 189.808 17.3462 189.48 17.1327C189.152 16.9193 188.892 16.6591 188.701 16.3522C188.523 16.032 188.441 15.6518 188.455 15.2115C188.496 14.5711 188.714 14.004 189.111 13.5104C189.521 13.0167 190.067 12.6298 190.751 12.3497C191.448 12.0561 192.248 11.9094 193.15 11.9094C194.393 11.9094 195.357 12.1896 196.04 12.7499C196.738 13.3103 197.072 14.0708 197.045 15.0314H194.4C194.373 14.6978 194.216 14.4377 193.929 14.2509C193.655 14.0641 193.286 13.9707 192.822 13.9707C192.343 13.9707 191.954 14.0708 191.653 14.2709C191.352 14.4577 191.195 14.6912 191.181 14.9713C191.181 15.1581 191.25 15.3249 191.386 15.4717C191.537 15.6051 191.755 15.7252 192.043 15.8319C192.33 15.9253 192.685 16.012 193.109 16.0921C193.655 16.2121 194.147 16.3456 194.585 16.4923C195.022 16.6391 195.398 16.8192 195.712 17.0327C196.027 17.2328 196.259 17.4863 196.41 17.7931C196.56 18.1 196.621 18.4803 196.594 18.9339C196.567 19.6543 196.334 20.2814 195.897 20.8151C195.46 21.3488 194.872 21.7624 194.134 22.0559C193.409 22.3361 192.582 22.4762 191.653 22.4762Z" fill="var(--fill-0, white)"/>
<path d="M179.979 22.4764C179.132 22.4764 178.4 22.2762 177.785 21.876C177.184 21.4624 176.726 20.9087 176.412 20.2149C176.111 19.5078 175.981 18.7139 176.022 17.8334C176.063 16.9795 176.234 16.199 176.535 15.4919C176.849 14.7714 177.266 14.1443 177.785 13.6107C178.318 13.077 178.927 12.6634 179.61 12.3699C180.293 12.063 181.032 11.9096 181.824 11.9096C182.631 11.9096 183.287 12.0563 183.793 12.3499C184.298 12.63 184.674 12.9969 184.92 13.4506L185.925 7.82696H188.693L186.109 22.2362H183.649L183.588 20.8553C183.342 21.1355 183.048 21.4023 182.706 21.6558C182.364 21.9093 181.968 22.1095 181.517 22.2562C181.066 22.403 180.553 22.4764 179.979 22.4764ZM181.127 20.1148C181.715 20.1148 182.248 19.9681 182.726 19.6746C183.205 19.3677 183.588 18.9608 183.875 18.4538C184.175 17.9468 184.339 17.3798 184.367 16.7527C184.394 16.2457 184.319 15.8121 184.141 15.4519C183.963 15.0783 183.697 14.7914 183.342 14.5913C183 14.3778 182.583 14.2711 182.091 14.2711C181.503 14.2711 180.97 14.4179 180.492 14.7114C180.027 14.9916 179.651 15.3785 179.364 15.8721C179.077 16.3658 178.92 16.9261 178.893 17.5532C178.865 18.0469 178.933 18.4871 179.098 18.874C179.275 19.261 179.535 19.5678 179.877 19.7946C180.218 20.0081 180.635 20.1148 181.127 20.1148Z" fill="var(--fill-0, white)"/>
<path d="M168.235 22.4762C167.443 22.4762 166.8 22.3561 166.308 22.1159C165.83 21.8624 165.474 21.5289 165.242 21.1153C165.023 20.6883 164.928 20.2214 164.955 19.7144C164.982 19.0206 165.201 18.4202 165.611 17.9132C166.021 17.4062 166.595 17.0126 167.333 16.7325C168.085 16.4523 168.96 16.3122 169.958 16.3122H172.5C172.596 15.8185 172.602 15.4116 172.52 15.0914C172.452 14.7579 172.288 14.511 172.028 14.3509C171.769 14.1908 171.4 14.1108 170.921 14.1108C170.415 14.1108 169.958 14.2242 169.548 14.451C169.151 14.6645 168.864 14.998 168.686 15.4516H166.001C166.206 14.7312 166.561 14.1108 167.067 13.5904C167.572 13.0568 168.188 12.6432 168.912 12.3497C169.65 12.0561 170.456 11.9094 171.331 11.9094C172.302 11.9094 173.108 12.0761 173.751 12.4097C174.407 12.7299 174.871 13.1902 175.145 13.7906C175.432 14.391 175.493 15.1248 175.329 15.992L174.202 22.236H171.782L171.823 20.715C171.618 20.9685 171.393 21.2087 171.147 21.4355C170.914 21.649 170.648 21.8357 170.347 21.9958C170.046 22.1426 169.718 22.256 169.363 22.3361C169.021 22.4295 168.645 22.4762 168.235 22.4762ZM169.261 20.3948C169.602 20.3948 169.93 20.3348 170.245 20.2147C170.559 20.0813 170.839 19.9078 171.085 19.6944C171.331 19.4676 171.536 19.2141 171.7 18.9339C171.878 18.6404 172.008 18.3335 172.09 18.0133V17.9733H169.978C169.568 17.9733 169.213 18.0333 168.912 18.1534C168.611 18.2601 168.379 18.4202 168.215 18.6337C168.051 18.8338 167.962 19.074 167.948 19.3541C167.921 19.6877 168.03 19.9479 168.276 20.1346C168.522 20.3081 168.85 20.3948 169.261 20.3948Z" fill="var(--fill-0, white)"/>
<path d="M158.794 22.4762C157.851 22.4762 157.037 22.2894 156.354 21.9158C155.684 21.5422 155.172 21.0152 154.816 20.3348C154.475 19.6543 154.331 18.8605 154.386 17.9532C154.413 17.1127 154.584 16.3322 154.898 15.6117C155.226 14.8779 155.671 14.2375 156.231 13.6905C156.791 13.1302 157.447 12.6965 158.199 12.3897C158.951 12.0695 159.785 11.9094 160.7 11.9094C161.63 11.9094 162.423 12.0962 163.079 12.4697C163.735 12.8433 164.227 13.3503 164.555 13.9907C164.883 14.6311 165.026 15.3716 164.985 16.2121C164.985 16.4923 164.951 16.7792 164.883 17.0727C164.828 17.3529 164.767 17.613 164.698 17.8532H156.333L156.62 16.2121H162.238C162.293 15.7585 162.245 15.3783 162.095 15.0714C161.944 14.7512 161.712 14.511 161.398 14.3509C161.097 14.1908 160.741 14.1108 160.331 14.1108C159.853 14.1108 159.395 14.2175 158.958 14.431C158.534 14.6311 158.172 14.9447 157.871 15.3716C157.57 15.7985 157.359 16.3389 157.236 16.9926L157.133 17.573C157.037 18.0933 157.051 18.5603 157.174 18.9739C157.311 19.3742 157.55 19.6944 157.892 19.9345C158.233 20.1613 158.657 20.2747 159.163 20.2747C159.682 20.2747 160.126 20.168 160.495 19.9545C160.864 19.7411 161.165 19.4676 161.398 19.134H164.227C163.912 19.7611 163.482 20.3281 162.935 20.8351C162.402 21.3421 161.78 21.7423 161.069 22.0359C160.372 22.3294 159.614 22.4762 158.794 22.4762Z" fill="var(--fill-0, white)"/>
<path d="M144.337 22.2364L146.859 8.22741H149.627L147.495 20.1351H153.789L153.399 22.2364H144.337Z" fill="var(--fill-0, white)"/>
<path d="M136.199 22.4762C135.256 22.4762 134.436 22.2827 133.739 21.8958C133.056 21.5089 132.536 20.9752 132.181 20.2948C131.839 19.6143 131.689 18.8271 131.73 17.9332C131.771 17.0794 131.955 16.2922 132.283 15.5717C132.625 14.8379 133.083 14.1975 133.657 13.6505C134.231 13.1035 134.894 12.6765 135.646 12.3697C136.398 12.0628 137.211 11.9094 138.086 11.9094C139.411 11.9094 140.471 12.2563 141.264 12.95C142.056 13.6438 142.453 14.6044 142.453 15.8319H139.541C139.528 15.3249 139.343 14.9313 138.988 14.6511C138.646 14.3709 138.209 14.2309 137.676 14.2309C137.115 14.2309 136.603 14.3843 136.138 14.6912C135.687 14.9847 135.325 15.3916 135.051 15.9119C134.778 16.4323 134.621 17.026 134.58 17.6931C134.566 18.08 134.6 18.4269 134.682 18.7337C134.764 19.0406 134.894 19.3008 135.072 19.5143C135.249 19.7277 135.461 19.8945 135.707 20.0146C135.967 20.1213 136.261 20.1747 136.589 20.1747C136.958 20.1747 137.3 20.1146 137.614 19.9946C137.942 19.8611 138.229 19.6744 138.475 19.4342C138.735 19.194 138.926 18.9072 139.049 18.5736H141.981C141.68 19.3475 141.243 20.0279 140.669 20.615C140.109 21.202 139.446 21.6623 138.68 21.9958C137.915 22.3161 137.088 22.4762 136.199 22.4762Z" fill="var(--fill-0, white)"/>
<path d="M127.068 22.236L128.893 12.1495H131.661L129.836 22.236H127.068ZM130.8 10.8287C130.294 10.8287 129.884 10.6819 129.57 10.3884C129.255 10.0815 129.098 9.71463 129.098 9.28769C129.098 8.83407 129.255 8.46049 129.57 8.16697C129.884 7.87345 130.294 7.72669 130.8 7.72669C131.305 7.72669 131.716 7.87345 132.03 8.16697C132.358 8.46049 132.522 8.83407 132.522 9.28769C132.522 9.71463 132.358 10.0815 132.03 10.3884C131.702 10.6819 131.292 10.8287 130.8 10.8287Z" fill="var(--fill-0, white)"/>
<path d="M115.768 22.236L117.572 12.1495H120.012L119.971 13.7506C120.381 13.1902 120.9 12.7432 121.529 12.4097C122.171 12.0761 122.889 11.9094 123.682 11.9094C124.57 11.9094 125.274 12.0962 125.793 12.4697C126.313 12.8433 126.661 13.3636 126.839 14.0307C127.03 14.6978 127.044 15.4917 126.88 16.4123L125.814 22.236H123.067L124.071 16.6724C124.208 15.8853 124.146 15.2782 123.887 14.8513C123.627 14.411 123.128 14.1908 122.39 14.1908C121.925 14.1908 121.495 14.2976 121.098 14.511C120.716 14.7112 120.381 15.0047 120.094 15.3916C119.82 15.7785 119.629 16.2455 119.52 16.7925L118.536 22.236H115.768Z" fill="var(--fill-0, white)"/>
<path d="M108.514 22.4762C107.721 22.4762 107.079 22.3561 106.587 22.1159C106.109 21.8624 105.753 21.5289 105.521 21.1153C105.302 20.6883 105.206 20.2214 105.234 19.7144C105.261 19.0206 105.48 18.4202 105.89 17.9132C106.3 17.4062 106.874 17.0126 107.612 16.7325C108.364 16.4523 109.239 16.3122 110.236 16.3122H112.779C112.874 15.8185 112.881 15.4116 112.799 15.0914C112.731 14.7579 112.567 14.511 112.307 14.3509C112.047 14.1908 111.678 14.1108 111.2 14.1108C110.694 14.1108 110.236 14.2242 109.826 14.451C109.43 14.6645 109.143 14.998 108.965 15.4516H106.279C106.484 14.7312 106.84 14.1108 107.346 13.5904C107.851 13.0568 108.466 12.6432 109.191 12.3497C109.929 12.0561 110.735 11.9094 111.61 11.9094C112.58 11.9094 113.387 12.0761 114.029 12.4097C114.685 12.7299 115.15 13.1902 115.423 13.7906C115.71 14.391 115.772 15.1248 115.608 15.992L114.48 22.236H112.061L112.102 20.715C111.897 20.9685 111.672 21.2087 111.425 21.4355C111.193 21.649 110.927 21.8357 110.626 21.9958C110.325 22.1426 109.997 22.256 109.642 22.3361C109.3 22.4295 108.924 22.4762 108.514 22.4762ZM109.539 20.3948C109.881 20.3948 110.209 20.3348 110.523 20.2147C110.838 20.0813 111.118 19.9078 111.364 19.6944C111.61 19.4676 111.815 19.2141 111.979 18.9339C112.157 18.6404 112.287 18.3335 112.369 18.0133V17.9733H110.257C109.847 17.9733 109.491 18.0333 109.191 18.1534C108.89 18.2601 108.658 18.4202 108.494 18.6337C108.33 18.8338 108.241 19.074 108.227 19.3541C108.2 19.6877 108.309 19.9479 108.555 20.1346C108.801 20.3081 109.129 20.3948 109.539 20.3948Z" fill="var(--fill-0, white)"/>
<path d="M98.1935 26.879C97.2777 26.879 96.485 26.7722 95.8152 26.5588C95.1455 26.3453 94.6398 26.0251 94.2981 25.5982C93.9427 25.1712 93.7787 24.6375 93.806 23.9971C93.8333 23.4501 94.0042 22.9498 94.3186 22.4962C94.6193 22.0425 95.0498 21.6356 95.6102 21.2754C96.1706 20.9151 96.8335 20.6016 97.5989 20.3348L98.419 21.6756C97.7083 21.8891 97.1957 22.1559 96.8814 22.4762C96.567 22.8097 96.403 23.1633 96.3893 23.5368C96.3756 23.817 96.4508 24.0572 96.6148 24.2573C96.7925 24.4574 97.0454 24.6042 97.3734 24.6976C97.7151 24.791 98.0978 24.8377 98.5215 24.8377C99.205 24.8377 99.779 24.7109 100.244 24.4574C100.708 24.2039 100.948 23.8237 100.961 23.3167C100.989 22.9965 100.886 22.7296 100.654 22.5162C100.421 22.3027 99.9499 22.1693 99.2391 22.1159C98.6104 22.0759 98.0363 22.0092 97.5169 21.9158C97.0112 21.8091 96.5602 21.689 96.1638 21.5556C95.7811 21.4088 95.453 21.2487 95.1796 21.0753C94.92 20.9018 94.7081 20.7217 94.5441 20.5349L94.6261 20.0746L97.1889 17.8332L99.0341 18.4536L96.0408 20.9152L97.0659 19.5343C97.2026 19.6277 97.3461 19.7144 97.4964 19.7944C97.6604 19.8745 97.845 19.9479 98.05 20.0146C98.2687 20.0679 98.5352 20.1213 98.8496 20.1747C99.1639 20.228 99.5535 20.2747 100.018 20.3148C100.879 20.3815 101.57 20.5349 102.089 20.7751C102.622 21.0019 103.005 21.3087 103.237 21.6957C103.469 22.0826 103.565 22.5495 103.524 23.0966C103.497 23.817 103.258 24.4641 102.807 25.0378C102.369 25.6115 101.754 26.0584 100.961 26.3787C100.169 26.7122 99.246 26.879 98.1935 26.879ZM99.5262 19.2541C98.7471 19.2541 98.0842 19.1207 97.5374 18.8538C97.0044 18.5736 96.6012 18.1934 96.3278 17.7131C96.0681 17.2328 95.9519 16.6924 95.9792 16.0921C96.0202 15.3049 96.2526 14.5978 96.6763 13.9707C97.1137 13.3436 97.6946 12.8433 98.419 12.4697C99.1571 12.0962 99.9704 11.9094 100.859 11.9094C101.652 11.9094 102.314 12.0561 102.848 12.3497C103.394 12.6298 103.797 13.0101 104.057 13.4904C104.317 13.9574 104.426 14.491 104.385 15.0914C104.358 15.8652 104.126 16.5724 103.688 17.2128C103.264 17.8398 102.69 18.3402 101.966 18.7137C101.242 19.074 100.428 19.2541 99.5262 19.2541ZM99.8952 17.2128C100.497 17.2128 100.995 17.046 101.392 16.7125C101.788 16.3656 102 15.9119 102.027 15.3516C102.055 14.898 101.925 14.5577 101.638 14.3309C101.365 14.1041 100.982 13.9907 100.49 13.9907C99.8884 13.9907 99.3826 14.1642 98.9726 14.511C98.5762 14.8446 98.3644 15.2915 98.337 15.8519C98.3097 16.2922 98.4395 16.6324 98.7266 16.8726C99.0273 17.0994 99.4168 17.2128 99.8952 17.2128ZM102.191 14.0507L102.068 12.1495H106.333L106.025 13.7706L102.191 14.0507Z" fill="var(--fill-0, white)"/>
<path d="M87.8982 22.236L89.7024 12.1495H92.1832L92.1217 13.9707C92.4497 13.5438 92.8256 13.1835 93.2493 12.89C93.6867 12.5831 94.1651 12.343 94.6845 12.1695C95.2039 11.9961 95.7506 11.9094 96.3247 11.9094L95.8326 14.7712H94.869C94.459 14.7712 94.0694 14.8179 93.7004 14.9113C93.345 14.9913 93.017 15.1381 92.7163 15.3516C92.4292 15.5517 92.1832 15.8252 91.9782 16.1721C91.7732 16.519 91.6228 16.9526 91.5271 17.4729L90.666 22.236H87.8982Z" fill="var(--fill-0, white)"/>
<path d="M79.8825 22.4766C78.6387 22.4766 77.552 22.2031 76.6226 21.656C75.6931 21.109 74.9824 20.3619 74.4903 19.4146C73.9983 18.454 73.7864 17.3533 73.8548 16.1125C73.8958 14.9784 74.1418 13.9177 74.5929 12.9304C75.0576 11.9431 75.6727 11.0826 76.4381 10.3488C77.2035 9.60164 78.0919 9.02126 79.1034 8.60766C80.1148 8.19407 81.1946 7.98727 82.3428 7.98727C83.5866 7.98727 84.6732 8.26078 85.6026 8.80779C86.5321 9.35481 87.236 10.1086 87.7144 11.0692C88.2064 12.0165 88.4251 13.1039 88.3704 14.3313C88.3158 15.4787 88.0561 16.5461 87.5914 17.5334C87.1403 18.5207 86.5321 19.3879 85.7666 20.1351C85.0012 20.8689 84.1128 21.4426 83.1013 21.8562C82.1036 22.2698 81.0306 22.4766 79.8825 22.4766ZM80.2515 20.055C80.9623 20.055 81.6252 19.9149 82.2402 19.6347C82.869 19.3546 83.4225 18.9676 83.9009 18.474C84.3793 17.967 84.7552 17.38 85.0286 16.7129C85.3156 16.0324 85.4796 15.292 85.5206 14.4914C85.5616 13.6642 85.4523 12.9505 85.1926 12.3501C84.9329 11.7363 84.5297 11.2627 83.9829 10.9292C83.4499 10.5956 82.7801 10.4288 81.9737 10.4288C81.263 10.4288 80.5932 10.5689 79.9645 10.8491C79.3494 11.1159 78.8027 11.5029 78.3243 12.0098C77.8459 12.5035 77.4632 13.0839 77.1762 13.751C76.8891 14.4181 76.7319 15.1519 76.7046 15.9524C76.6499 16.7796 76.7593 17.5 77.0326 18.1138C77.306 18.7275 77.716 19.2078 78.2628 19.5547C78.8095 19.8882 79.4724 20.055 80.2515 20.055Z" fill="var(--fill-0, white)"/>
<path d="M58.3366 26.6388L60.9609 12.1495H63.4212L63.4622 13.5504C63.7356 13.2302 64.0431 12.95 64.3848 12.7099C64.7265 12.4564 65.1161 12.2629 65.5534 12.1295C65.9908 11.9828 66.4692 11.9094 66.9886 11.9094C67.8634 11.9094 68.6083 12.1162 69.2234 12.5298C69.8521 12.93 70.3237 13.477 70.638 14.1708C70.9661 14.8646 71.1096 15.6518 71.0686 16.5323C71.0276 17.3462 70.8499 18.12 70.5355 18.8538C70.2211 19.5743 69.7974 20.208 69.2644 20.755C68.7313 21.2887 68.1162 21.709 67.4191 22.0159C66.7357 22.3227 65.9977 22.4762 65.2049 22.4762C64.7128 22.4762 64.2618 22.4094 63.8517 22.276C63.4554 22.1426 63.1137 21.9625 62.8266 21.7357C62.5396 21.4955 62.3072 21.222 62.1296 20.9152L61.1044 26.6388H58.3366ZM64.9999 20.1146C65.5876 20.1146 66.1138 19.9745 66.5786 19.6944C67.0569 19.4142 67.4397 19.0273 67.7267 18.5336C68.0137 18.04 68.1709 17.4796 68.1982 16.8525C68.2392 16.3589 68.1641 15.9186 67.9727 15.5317C67.795 15.1448 67.5285 14.8379 67.1731 14.6111C66.8314 14.3843 66.4077 14.2709 65.902 14.2709C65.3142 14.2709 64.7812 14.4176 64.3028 14.7112C63.8381 14.9913 63.4622 15.3849 63.1752 15.8919C62.8881 16.3856 62.7241 16.9526 62.6831 17.593C62.6558 18.0867 62.7309 18.5269 62.9086 18.9139C63.1 19.2874 63.3734 19.581 63.7287 19.7944C64.0841 20.0079 64.5078 20.1146 64.9999 20.1146Z" fill="var(--fill-0, white)"/>
<path d="M52.9596 22.4762C52.0302 22.4762 51.2238 22.276 50.5404 21.8758C49.857 21.4622 49.3376 20.9018 48.9822 20.1947C48.6268 19.4876 48.4765 18.6804 48.5311 17.7731C48.5585 16.9459 48.7362 16.1788 49.0642 15.4717C49.3922 14.7512 49.8296 14.1308 50.3763 13.6105C50.9367 13.0768 51.5791 12.6632 52.3036 12.3697C53.028 12.0628 53.8139 11.9094 54.6613 11.9094C55.5908 11.9094 56.3972 12.1095 57.0806 12.5098C57.764 12.91 58.2834 13.4637 58.6388 14.1708C59.0078 14.8646 59.1718 15.6718 59.1308 16.5924C59.0898 17.4329 58.9053 18.2134 58.5773 18.9339C58.2492 19.641 57.805 20.2614 57.2446 20.7951C56.6842 21.3287 56.0418 21.7423 55.3174 22.0359C54.593 22.3294 53.8071 22.4762 52.9596 22.4762ZM53.3287 20.1346C53.8754 20.1346 54.3606 19.9946 54.7843 19.7144C55.2217 19.4209 55.5703 19.0139 55.83 18.4936C56.1033 17.9733 56.2537 17.3729 56.281 16.6924C56.322 16.1721 56.2605 15.7318 56.0965 15.3716C55.9325 14.998 55.6933 14.7178 55.3789 14.5311C55.0782 14.3443 54.7228 14.2509 54.3128 14.2509C53.7797 14.2509 53.2945 14.3976 52.8571 14.6912C52.4334 14.9847 52.0849 15.3916 51.8115 15.9119C51.5518 16.4189 51.4015 17.0126 51.3605 17.6931C51.3331 18.2134 51.4015 18.6604 51.5655 19.0339C51.7295 19.3942 51.9619 19.6677 52.2626 19.8545C52.5769 20.0413 52.9323 20.1346 53.3287 20.1346Z" fill="var(--fill-0, white)"/>
<path d="M42.024 22.2364L44.1768 10.3688H39.9738L40.3633 8.22741H51.5166L51.1271 10.3688H46.9241L44.7918 22.2364H42.024Z" fill="var(--fill-0, white)"/>
</g>
</svg>
