<svg width="202" height="32" viewBox="0 0 202 32" fill="none" xmlns="http://www.w3.org/2000/svg">
<path d="M7.2 6.83287H12.96L5.76 30.2598H0L7.2 6.83287Z" fill="#00CC99"/>
<path d="M16.74 3.9045H22.5L14.4 30.2598H8.64L16.74 3.9045Z" fill="#00CC99"/>
<path d="M26.28 0.976124H32.04L23.04 30.2598H17.28L26.28 0.976124Z" fill="white"/>
<path d="M191.653 23.4523C190.696 23.4523 189.89 23.2988 189.234 22.992C188.578 22.6851 188.092 22.2648 187.778 21.7312C187.477 21.1975 187.361 20.5971 187.429 19.93H190.177C190.163 20.2102 190.225 20.4637 190.361 20.6905C190.498 20.9173 190.703 21.0974 190.976 21.2309C191.25 21.3509 191.591 21.411 192.002 21.411C192.371 21.411 192.685 21.3576 192.945 21.2509C193.204 21.1441 193.403 20.9974 193.539 20.8106C193.69 20.6238 193.772 20.417 193.785 20.1902C193.799 19.95 193.731 19.7632 193.58 19.6298C193.444 19.4831 193.238 19.363 192.965 19.2696C192.692 19.1762 192.371 19.0961 192.002 19.0294C191.523 18.936 191.065 18.816 190.628 18.6692C190.19 18.5091 189.808 18.3223 189.48 18.1088C189.152 17.8954 188.892 17.6352 188.701 17.3283C188.523 17.0081 188.441 16.6279 188.455 16.1876C188.496 15.5472 188.714 14.9802 189.111 14.4865C189.521 13.9929 190.067 13.606 190.751 13.3258C191.448 13.0323 192.248 12.8855 193.15 12.8855C194.393 12.8855 195.357 13.1657 196.04 13.726C196.738 14.2864 197.072 15.0469 197.045 16.0075H194.4C194.373 15.674 194.216 15.4138 193.929 15.227C193.655 15.0402 193.286 14.9468 192.822 14.9468C192.343 14.9468 191.954 15.0469 191.653 15.247C191.352 15.4338 191.195 15.6673 191.181 15.9475C191.181 16.1342 191.25 16.301 191.386 16.4478C191.537 16.5812 191.755 16.7013 192.043 16.808C192.33 16.9014 192.685 16.9881 193.109 17.0682C193.655 17.1883 194.147 17.3217 194.585 17.4684C195.022 17.6152 195.398 17.7953 195.712 18.0088C196.027 18.2089 196.259 18.4624 196.41 18.7693C196.56 19.0761 196.621 19.4564 196.594 19.91C196.567 20.6305 196.334 21.2575 195.897 21.7912C195.46 22.3249 194.872 22.7385 194.134 23.032C193.409 23.3122 192.582 23.4523 191.653 23.4523Z" fill="white"/>
<path d="M179.979 23.4525C179.132 23.4525 178.4 23.2524 177.785 22.8521C177.184 22.4385 176.726 21.8848 176.412 21.191C176.111 20.4839 175.981 19.6901 176.022 18.8095C176.063 17.9556 176.234 17.1751 176.535 16.468C176.849 15.7475 177.266 15.1205 177.785 14.5868C178.318 14.0531 178.927 13.6395 179.61 13.346C180.293 13.0391 181.032 12.8857 181.824 12.8857C182.631 12.8857 183.287 13.0325 183.793 13.326C184.298 13.6062 184.674 13.9731 184.92 14.4267L185.925 8.80308H188.693L186.109 23.2123H183.649L183.588 21.8314C183.342 22.1116 183.048 22.3785 182.706 22.632C182.364 22.8855 181.968 23.0856 181.517 23.2323C181.066 23.3791 180.553 23.4525 179.979 23.4525ZM181.127 21.091C181.715 21.091 182.248 20.9442 182.726 20.6507C183.205 20.3438 183.588 19.9369 183.875 19.4299C184.175 18.9229 184.339 18.3559 184.367 17.7288C184.394 17.2218 184.319 16.7882 184.141 16.428C183.963 16.0544 183.697 15.7676 183.342 15.5674C183 15.354 182.583 15.2472 182.091 15.2472C181.503 15.2472 180.97 15.394 180.492 15.6875C180.027 15.9677 179.651 16.3546 179.364 16.8482C179.077 17.3419 178.92 17.9023 178.893 18.5293C178.865 19.023 178.933 19.4633 179.098 19.8502C179.275 20.2371 179.535 20.544 179.877 20.7708C180.218 20.9842 180.635 21.091 181.127 21.091Z" fill="white"/>
<path d="M168.235 23.4523C167.443 23.4523 166.8 23.3322 166.308 23.092C165.83 22.8385 165.474 22.505 165.242 22.0914C165.023 21.6645 164.928 21.1975 164.955 20.6905C164.982 19.9967 165.201 19.3963 165.611 18.8893C166.021 18.3824 166.595 17.9888 167.333 17.7086C168.085 17.4284 168.96 17.2883 169.958 17.2883H172.5C172.596 16.7947 172.602 16.3877 172.52 16.0675C172.452 15.734 172.288 15.4872 172.028 15.3271C171.769 15.167 171.4 15.0869 170.921 15.0869C170.415 15.0869 169.958 15.2003 169.548 15.4271C169.151 15.6406 168.864 15.9741 168.686 16.4278H166.001C166.206 15.7073 166.561 15.0869 167.067 14.5666C167.572 14.0329 168.188 13.6193 168.912 13.3258C169.65 13.0323 170.456 12.8855 171.331 12.8855C172.302 12.8855 173.108 13.0523 173.751 13.3858C174.407 13.706 174.871 14.1663 175.145 14.7667C175.432 15.3671 175.493 16.1009 175.329 16.9681L174.202 23.2121H171.782L171.823 21.6911C171.618 21.9446 171.393 22.1848 171.147 22.4116C170.914 22.6251 170.648 22.8119 170.347 22.972C170.046 23.1187 169.718 23.2321 169.363 23.3122C169.021 23.4056 168.645 23.4523 168.235 23.4523ZM169.261 21.3709C169.602 21.3709 169.93 21.3109 170.245 21.1908C170.559 21.0574 170.839 20.884 171.085 20.6705C171.331 20.4437 171.536 20.1902 171.7 19.91C171.878 19.6165 172.008 19.3096 172.09 18.9894V18.9494H169.978C169.568 18.9494 169.213 19.0094 168.912 19.1295C168.611 19.2362 168.379 19.3963 168.215 19.6098C168.051 19.8099 167.962 20.0501 167.948 20.3303C167.921 20.6638 168.03 20.924 168.276 21.1108C168.522 21.2842 168.85 21.3709 169.261 21.3709Z" fill="white"/>
<path d="M158.794 23.4523C157.851 23.4523 157.037 23.2655 156.354 22.8919C155.684 22.5183 155.172 21.9913 154.816 21.3109C154.475 20.6305 154.331 19.8366 154.386 18.9294C154.413 18.0888 154.584 17.3083 154.898 16.5879C155.226 15.8541 155.671 15.2137 156.231 14.6666C156.791 14.1063 157.447 13.6727 158.199 13.3658C158.951 13.0456 159.785 12.8855 160.7 12.8855C161.63 12.8855 162.423 13.0723 163.079 13.4459C163.735 13.8194 164.227 14.3264 164.555 14.9668C164.883 15.6072 165.026 16.3477 164.985 17.1883C164.985 17.4684 164.951 17.7553 164.883 18.0488C164.828 18.329 164.767 18.5892 164.698 18.8293H156.333L156.62 17.1883H162.238C162.293 16.7346 162.245 16.3544 162.095 16.0475C161.944 15.7273 161.712 15.4872 161.398 15.3271C161.097 15.167 160.741 15.0869 160.331 15.0869C159.853 15.0869 159.395 15.1936 158.958 15.4071C158.534 15.6072 158.172 15.9208 157.871 16.3477C157.57 16.7747 157.359 17.315 157.236 17.9688L157.133 18.5491C157.037 19.0695 157.051 19.5364 157.174 19.95C157.311 20.3503 157.55 20.6705 157.892 20.9106C158.233 21.1375 158.657 21.2509 159.163 21.2509C159.682 21.2509 160.126 21.1441 160.495 20.9307C160.864 20.7172 161.165 20.4437 161.398 20.1101H164.227C163.912 20.7372 163.482 21.3042 162.935 21.8112C162.402 22.3182 161.78 22.7185 161.069 23.012C160.372 23.3055 159.614 23.4523 158.794 23.4523Z" fill="white"/>
<path d="M144.337 23.2125L146.859 9.20353H149.627L147.495 21.1112H153.789L153.399 23.2125H144.337Z" fill="white"/>
<path d="M136.199 23.4523C135.256 23.4523 134.436 23.2588 133.739 22.8719C133.056 22.485 132.536 21.9513 132.181 21.2709C131.839 20.5904 131.689 19.8033 131.73 18.9094C131.771 18.0555 131.955 17.2683 132.283 16.5478C132.625 15.814 133.083 15.1736 133.657 14.6266C134.231 14.0796 134.894 13.6527 135.646 13.3458C136.398 13.0389 137.211 12.8855 138.086 12.8855C139.411 12.8855 140.471 13.2324 141.264 13.9262C142.056 14.6199 142.453 15.5806 142.453 16.808H139.541C139.528 16.301 139.343 15.9074 138.988 15.6273C138.646 15.3471 138.209 15.207 137.676 15.207C137.115 15.207 136.603 15.3604 136.138 15.6673C135.687 15.9608 135.325 16.3677 135.051 16.8881C134.778 17.4084 134.621 18.0021 134.58 18.6692C134.566 19.0561 134.6 19.403 134.682 19.7099C134.764 20.0167 134.894 20.2769 135.072 20.4904C135.249 20.7038 135.461 20.8706 135.707 20.9907C135.967 21.0974 136.261 21.1508 136.589 21.1508C136.958 21.1508 137.3 21.0908 137.614 20.9707C137.942 20.8373 138.229 20.6505 138.475 20.4103C138.735 20.1702 138.926 19.8833 139.049 19.5498H141.981C141.68 20.3236 141.243 21.004 140.669 21.5911C140.109 22.1781 139.446 22.6384 138.68 22.972C137.915 23.2922 137.088 23.4523 136.199 23.4523Z" fill="white"/>
<path d="M127.068 23.2121L128.893 13.1257H131.661L129.836 23.2121H127.068ZM130.8 11.8048C130.294 11.8048 129.884 11.658 129.57 11.3645C129.255 11.0577 129.098 10.6908 129.098 10.2638C129.098 9.81019 129.255 9.43661 129.57 9.14309C129.884 8.84957 130.294 8.70281 130.8 8.70281C131.305 8.70281 131.716 8.84957 132.03 9.14309C132.358 9.43661 132.522 9.81019 132.522 10.2638C132.522 10.6908 132.358 11.0577 132.03 11.3645C131.702 11.658 131.292 11.8048 130.8 11.8048Z" fill="white"/>
<path d="M115.768 23.2121L117.572 13.1256H120.012L119.971 14.7267C120.381 14.1663 120.9 13.7194 121.529 13.3858C122.171 13.0523 122.889 12.8855 123.682 12.8855C124.57 12.8855 125.274 13.0723 125.793 13.4459C126.313 13.8194 126.661 14.3398 126.839 15.0069C127.03 15.674 127.044 16.4678 126.88 17.3884L125.814 23.2121H123.067L124.071 17.6486C124.208 16.8614 124.146 16.2543 123.887 15.8274C123.627 15.3871 123.128 15.167 122.39 15.167C121.925 15.167 121.495 15.2737 121.098 15.4872C120.716 15.6873 120.381 15.9808 120.094 16.3677C119.82 16.7546 119.629 17.2216 119.52 17.7686L118.536 23.2121H115.768Z" fill="white"/>
<path d="M108.514 23.4523C107.721 23.4523 107.079 23.3322 106.587 23.092C106.109 22.8385 105.753 22.505 105.521 22.0914C105.302 21.6645 105.206 21.1975 105.234 20.6905C105.261 19.9967 105.48 19.3963 105.89 18.8893C106.3 18.3824 106.874 17.9888 107.612 17.7086C108.364 17.4284 109.239 17.2883 110.236 17.2883H112.779C112.874 16.7947 112.881 16.3877 112.799 16.0675C112.731 15.734 112.567 15.4872 112.307 15.3271C112.047 15.167 111.678 15.0869 111.2 15.0869C110.694 15.0869 110.236 15.2003 109.826 15.4271C109.43 15.6406 109.143 15.9741 108.965 16.4278H106.279C106.484 15.7073 106.84 15.0869 107.346 14.5666C107.851 14.0329 108.466 13.6193 109.191 13.3258C109.929 13.0323 110.735 12.8855 111.61 12.8855C112.58 12.8855 113.387 13.0523 114.029 13.3858C114.685 13.706 115.15 14.1663 115.423 14.7667C115.71 15.3671 115.772 16.1009 115.608 16.9681L114.48 23.2121H112.061L112.102 21.6911C111.897 21.9446 111.672 22.1848 111.425 22.4116C111.193 22.6251 110.927 22.8119 110.626 22.972C110.325 23.1187 109.997 23.2321 109.642 23.3122C109.3 23.4056 108.924 23.4523 108.514 23.4523ZM109.539 21.3709C109.881 21.3709 110.209 21.3109 110.523 21.1908C110.838 21.0574 111.118 20.884 111.364 20.6705C111.61 20.4437 111.815 20.1902 111.979 19.91C112.157 19.6165 112.287 19.3096 112.369 18.9894V18.9494H110.257C109.847 18.9494 109.491 19.0094 109.191 19.1295C108.89 19.2362 108.658 19.3963 108.494 19.6098C108.33 19.8099 108.241 20.0501 108.227 20.3303C108.2 20.6638 108.309 20.924 108.555 21.1108C108.801 21.2842 109.129 21.3709 109.539 21.3709Z" fill="white"/>
<path d="M98.1935 27.8551C97.2777 27.8551 96.485 27.7484 95.8152 27.5349C95.1455 27.3214 94.6398 27.0012 94.2981 26.5743C93.9427 26.1473 93.7787 25.6137 93.806 24.9733C93.8333 24.4262 94.0042 23.9259 94.3186 23.4723C94.6193 23.0187 95.0498 22.6117 95.6102 22.2515C96.1706 21.8913 96.8335 21.5777 97.5989 21.3109L98.419 22.6518C97.7083 22.8652 97.1957 23.1321 96.8814 23.4523C96.567 23.7858 96.403 24.1394 96.3893 24.513C96.3756 24.7931 96.4508 25.0333 96.6148 25.2334C96.7925 25.4335 97.0454 25.5803 97.3734 25.6737C97.7151 25.7671 98.0978 25.8138 98.5215 25.8138C99.205 25.8138 99.779 25.687 100.244 25.4335C100.708 25.1801 100.948 24.7998 100.961 24.2928C100.989 23.9726 100.886 23.7058 100.654 23.4923C100.421 23.2788 99.9499 23.1454 99.2391 23.092C98.6104 23.052 98.0363 22.9853 97.5169 22.8919C97.0112 22.7852 96.5602 22.6651 96.1638 22.5317C95.7811 22.3849 95.453 22.2248 95.1796 22.0514C94.92 21.8779 94.7081 21.6978 94.5441 21.511L94.6261 21.0507L97.1889 18.8093L99.0341 19.4297L96.0408 21.8913L97.0659 20.5104C97.2026 20.6038 97.3461 20.6905 97.4964 20.7706C97.6604 20.8506 97.845 20.924 98.05 20.9907C98.2687 21.0441 98.5352 21.0974 98.8496 21.1508C99.1639 21.2042 99.5535 21.2509 100.018 21.2909C100.879 21.3576 101.57 21.511 102.089 21.7512C102.622 21.978 103.005 22.2849 103.237 22.6718C103.469 23.0587 103.565 23.5257 103.524 24.0727C103.497 24.7931 103.258 25.4402 102.807 26.0139C102.369 26.5876 101.754 27.0346 100.961 27.3548C100.169 27.6883 99.246 27.8551 98.1935 27.8551ZM99.5262 20.2302C98.7471 20.2302 98.0842 20.0968 97.5374 19.83C97.0044 19.5498 96.6012 19.1695 96.3278 18.6892C96.0681 18.2089 95.9519 17.6686 95.9792 17.0682C96.0202 16.281 96.2526 15.5739 96.6763 14.9468C97.1137 14.3197 97.6946 13.8194 98.419 13.4459C99.1571 13.0723 99.9704 12.8855 100.859 12.8855C101.652 12.8855 102.314 13.0323 102.848 13.3258C103.394 13.606 103.797 13.9862 104.057 14.4665C104.317 14.9335 104.426 15.4672 104.385 16.0675C104.358 16.8414 104.126 17.5485 103.688 18.1889C103.264 18.816 102.69 19.3163 101.966 19.6899C101.242 20.0501 100.428 20.2302 99.5262 20.2302ZM99.8952 18.1889C100.497 18.1889 100.995 18.0221 101.392 17.6886C101.788 17.3417 102 16.8881 102.027 16.3277C102.055 15.8741 101.925 15.5339 101.638 15.307C101.365 15.0802 100.982 14.9668 100.49 14.9668C99.8884 14.9668 99.3826 15.1403 98.9726 15.4872C98.5762 15.8207 98.3644 16.2677 98.337 16.828C98.3097 17.2683 98.4395 17.6085 98.7266 17.8487C99.0273 18.0755 99.4168 18.1889 99.8952 18.1889ZM102.191 15.0269L102.068 13.1256H106.333L106.025 14.7467L102.191 15.0269Z" fill="white"/>
<path d="M87.8982 23.2121L89.7024 13.1256H92.1832L92.1217 14.9468C92.4497 14.5199 92.8256 14.1596 93.2493 13.8661C93.6867 13.5593 94.1651 13.3191 94.6845 13.1457C95.2039 12.9722 95.7506 12.8855 96.3247 12.8855L95.8326 15.7473H94.869C94.459 15.7473 94.0694 15.794 93.7004 15.8874C93.345 15.9675 93.017 16.1142 92.7163 16.3277C92.4292 16.5278 92.1832 16.8013 91.9782 17.1482C91.7732 17.4951 91.6228 17.9287 91.5271 18.4491L90.666 23.2121H87.8982Z" fill="white"/>
<path d="M79.8825 23.4527C78.6387 23.4527 77.552 23.1792 76.6226 22.6322C75.6931 22.0851 74.9824 21.338 74.4903 20.3907C73.9983 19.4301 73.7864 18.3294 73.8548 17.0886C73.8958 15.9545 74.1418 14.8939 74.5929 13.9066C75.0576 12.9193 75.6727 12.0587 76.4381 11.3249C77.2035 10.5778 78.0919 9.99739 79.1034 9.58379C80.1148 9.17019 81.1946 8.96339 82.3428 8.96339C83.5866 8.96339 84.6732 9.2369 85.6026 9.78392C86.5321 10.3309 87.236 11.0848 87.7144 12.0454C88.2064 12.9926 88.4251 14.08 88.3704 15.3075C88.3158 16.4549 88.0561 17.5222 87.5914 18.5095C87.1403 19.4968 86.5321 20.364 85.7666 21.1112C85.0012 21.845 84.1128 22.4187 83.1013 22.8323C82.1036 23.2459 81.0306 23.4527 79.8825 23.4527ZM80.2515 21.0311C80.9623 21.0311 81.6252 20.891 82.2402 20.6109C82.869 20.3307 83.4225 19.9438 83.9009 19.4501C84.3793 18.9431 84.7552 18.3561 85.0286 17.689C85.3156 17.0086 85.4796 16.2681 85.5206 15.4676C85.5616 14.6404 85.4523 13.9266 85.1926 13.3262C84.9329 12.7125 84.5297 12.2388 83.9829 11.9053C83.4499 11.5717 82.7801 11.405 81.9737 11.405C81.263 11.405 80.5932 11.545 79.9645 11.8252C79.3494 12.0921 78.8027 12.479 78.3243 12.986C77.8459 13.4796 77.4632 14.06 77.1762 14.7271C76.8891 15.3942 76.7319 16.128 76.7046 16.9285C76.6499 17.7557 76.7593 18.4762 77.0326 19.0899C77.306 19.7036 77.716 20.1839 78.2628 20.5308C78.8095 20.8644 79.4724 21.0311 80.2515 21.0311Z" fill="white"/>
<path d="M58.3366 27.6149L60.9609 13.1256H63.4212L63.4622 14.5265C63.7356 14.2063 64.0431 13.9262 64.3848 13.686C64.7265 13.4325 65.1161 13.2391 65.5534 13.1056C65.9908 12.9589 66.4692 12.8855 66.9886 12.8855C67.8634 12.8855 68.6083 13.0923 69.2234 13.5059C69.8521 13.9061 70.3237 14.4532 70.638 15.1469C70.9661 15.8407 71.1096 16.6279 71.0686 17.5085C71.0276 18.3223 70.8499 19.0961 70.5355 19.83C70.2211 20.5504 69.7974 21.1842 69.2644 21.7312C68.7313 22.2648 68.1162 22.6851 67.4191 22.992C66.7357 23.2988 65.9977 23.4523 65.2049 23.4523C64.7128 23.4523 64.2618 23.3856 63.8517 23.2521C63.4554 23.1187 63.1137 22.9386 62.8266 22.7118C62.5396 22.4716 62.3072 22.1981 62.1296 21.8913L61.1044 27.6149H58.3366ZM64.9999 21.0908C65.5876 21.0908 66.1138 20.9507 66.5786 20.6705C67.0569 20.3903 67.4397 20.0034 67.7267 19.5097C68.0137 19.0161 68.1709 18.4557 68.1982 17.8287C68.2393 17.335 68.1641 16.8947 67.9727 16.5078C67.795 16.1209 67.5285 15.814 67.1731 15.5872C66.8314 15.3604 66.4077 15.247 65.902 15.247C65.3142 15.247 64.7812 15.3938 64.3028 15.6873C63.8381 15.9675 63.4622 16.3611 63.1752 16.8681C62.8881 17.3617 62.7241 17.9287 62.6831 18.5691C62.6558 19.0628 62.7309 19.5031 62.9086 19.89C63.1 20.2636 63.3734 20.5571 63.7287 20.7706C64.0841 20.984 64.5078 21.0908 64.9999 21.0908Z" fill="white"/>
<path d="M52.9596 23.4523C52.0302 23.4523 51.2238 23.2521 50.5404 22.8519C49.857 22.4383 49.3376 21.8779 48.9822 21.1708C48.6268 20.4637 48.4765 19.6565 48.5311 18.7493C48.5585 17.9221 48.7362 17.1549 49.0642 16.4478C49.3922 15.7273 49.8296 15.1069 50.3763 14.5866C50.9367 14.0529 51.5792 13.6393 52.3036 13.3458C53.028 13.0389 53.8139 12.8855 54.6613 12.8855C55.5908 12.8855 56.3972 13.0856 57.0806 13.4859C57.764 13.8861 58.2834 14.4398 58.6388 15.1469C59.0078 15.8407 59.1718 16.6479 59.1308 17.5685C59.0898 18.409 58.9053 19.1895 58.5773 19.91C58.2492 20.6171 57.805 21.2375 57.2446 21.7712C56.6842 22.3049 56.0418 22.7185 55.3174 23.012C54.593 23.3055 53.8071 23.4523 52.9596 23.4523ZM53.3287 21.1108C53.8754 21.1108 54.3606 20.9707 54.7843 20.6905C55.2217 20.397 55.5703 19.9901 55.83 19.4697C56.1033 18.9494 56.2537 18.349 56.281 17.6686C56.322 17.1482 56.2605 16.7079 56.0965 16.3477C55.9325 15.9741 55.6933 15.694 55.3789 15.5072C55.0782 15.3204 54.7228 15.227 54.3128 15.227C53.7797 15.227 53.2945 15.3738 52.8571 15.6673C52.4334 15.9608 52.0849 16.3677 51.8115 16.8881C51.5518 17.3951 51.4015 17.9888 51.3605 18.6692C51.3331 19.1895 51.4015 19.6365 51.5655 20.0101C51.7295 20.3703 51.9619 20.6438 52.2626 20.8306C52.5769 21.0174 52.9323 21.1108 53.3287 21.1108Z" fill="white"/>
<path d="M42.024 23.2125L44.1768 11.3449H39.9738L40.3633 9.20353H51.5166L51.1271 11.3449H46.9241L44.7918 23.2125H42.024Z" fill="white"/>
</svg>
